<?xml version="1.0" encoding="UTF-8"?>
<!DOCTYPE svg PUBLIC "-//W3C//DTD SVG 1.1//EN" "http://www.w3.org/Graphics/SVG/1.1/DTD/svg11.dtd">
<!-- Creator: CorelDRAW 2019 (64-Bit) -->
<svg xmlns="http://www.w3.org/2000/svg" xml:space="preserve" width="11in" height="11in" version="1.1" style="shape-rendering:geometricPrecision; text-rendering:geometricPrecision; image-rendering:optimizeQuality; fill-rule:evenodd; clip-rule:evenodd"
viewBox="0 0 11000 11000"
 xmlns:xlink="http://www.w3.org/1999/xlink"
 xmlns:xodm="http://www.corel.com/coreldraw/odm/2003">
 <defs>
  <style type="text/css">
   <![CDATA[
    .fil0 {fill:#35614A}
   ]]>
  </style>
 </defs>
 <g id="Layer_x0020_1">
  <metadata id="CorelCorpID_0Corel-Layer"/>
  <path class="fil0" d="M5714.65 4297.37l-1437.04 0 0 -481.24 1403.63 0c179.92,0 338.44,37.57 481.43,100.07 34.51,15.08 49.66,23.86 80.02,40.3 33.35,18.05 122.22,73.16 140.37,100.26 -40,59.74 -214.3,141.13 -285.41,169.11 -93.05,36.61 -256.55,71.52 -382.99,71.52zm-1764.56 -995.91l327.52 0 0 -989.22 1423.68 0c302.12,0 614.48,123.75 804.18,358.82 73.54,91.13 139.78,203.04 174.11,320.5 82.6,282.59 55.16,557.44 -82.65,817.87 -24.24,-12.82 -111.48,-84.33 -193.74,-127.08 -257.79,-133.98 -485.17,-173.69 -808.85,-173.69l-1644.25 0 0 1096.17 1711.09 0c320.5,0 593.15,-68.55 842.2,-233.91 32.67,-21.69 60.93,-45.02 93.55,-66.87 105.76,199.86 153.13,417.47 118.5,666.57 -18.23,131.06 -69.84,259.24 -133.94,367.37 -50.27,84.81 -158.31,205.15 -235.79,258.82 -172.45,119.46 -373.29,204.45 -624.36,204.45l-1443.73 0 0 -982.54 -327.52 0 0 1290 1731.14 0c207.11,0 406.41,-38.12 558.66,-96.38 85.97,-32.89 194.71,-86.25 268.32,-139.39 42.27,-30.52 101.24,-73.7 137.21,-110.09 111.89,-113.21 212.6,-226.82 278.93,-376.09 170.62,-383.97 175.98,-797.76 -13.28,-1176.29 -38.63,-77.25 -58.1,-99.33 -86.89,-153.73 52.78,-99.75 61.8,-85.43 122.19,-225.38 141.91,-328.84 139.29,-712.83 3.96,-1043.72 -70.13,-171.45 -178.46,-315.75 -311.49,-443.8 -45.23,-43.54 -139.75,-109.48 -192.71,-141.48 -145.36,-87.8 -323.39,-148.62 -493.68,-174.72 -100.94,-15.47 -204.83,-22.87 -318.01,-22.87l-1684.35 0 0 1296.68z"/>
  <path class="fil0" d="M4324.39 7712.86l253.99 0 0 -541.4c0,-69.28 -6.69,-112.1 -6.69,-180.46l6.69 0c0,58.48 65.26,306.77 81.58,366.24l92.2 355.62 274.05 0c27.17,-116.6 57.59,-237.09 86.89,-354.24 17.61,-70.43 80.21,-301.49 80.21,-360.94l6.69 0c0,107.97 -6.69,192.33 -6.69,300.78l0 414.4 287.41 0 0 -949.12 -427.77 0 -72.24 315.42c-31.3,125.99 -44.36,217.56 -68.12,319.56 -0.91,-1.45 -1.66,-5.68 -1.89,-4.79 -0.24,0.91 -1.46,-3.73 -1.77,-4.93 -0.31,-1.22 -1.14,-3.64 -1.49,-5.19l-108.48 -459.66c-13.33,-53.29 -27.66,-106.99 -40.1,-160.42l-434.46 0 0 949.12z"/>
  <path class="fil0" d="M2753.67 7519.03l-93.58 0 0 -187.15c117.52,0 213.89,-23.3 213.89,100.26 0,57.52 -60.09,86.89 -120.31,86.89zm-6.69 -387.67l-86.89 0 0 -173.79 66.84 0c63.61,0 120.31,23.2 120.31,86.89 0,50.43 -48.67,86.89 -100.26,86.89zm-380.98 581.5l487.93 0c81.26,0 179.33,-32.69 225.35,-68.74 30.83,-24.15 49.52,-42.8 70.31,-76.72 28.97,-47.28 31.84,-98.9 31.84,-155.31 0,-85.61 -68.01,-153.43 -135.74,-185.09 -13.81,-6.46 -26.27,-10.97 -38.74,-14.73 -10.78,-3.25 -13.16,-3.38 -21.14,-5.6l-24.96 -8.47c282.22,-65.75 273.1,-434.46 -126.99,-434.46l-467.88 0 0 949.12z"/>
  <path class="fil0" d="M6062.22 7519.03l-106.94 0 0 -187.15c80.15,0 151.89,-12.71 189.37,24.52 71.86,71.37 7.6,162.63 -82.43,162.63zm-20.05 -387.67l-86.89 0 0 -173.79c92.26,0 187.15,-11.29 187.15,93.58 0,49.67 -50.12,80.21 -100.26,80.21zm-374.3 581.5l494.61 0c296.45,0 406.92,-307.41 252.19,-439.34 -35.56,-30.32 -95.83,-68.64 -158.61,-68.64 23.8,-16.53 193.84,-57.35 193.84,-193.83 0,-63.31 3.25,-80.7 -34.48,-139.31 -49.4,-76.72 -188.74,-108 -286.35,-108l-461.19 0 0 949.12z"/>
  <path class="fil0" d="M8140.93 6997.67c325.85,0 337.33,481.25 -6.69,481.25 -66.02,0 -129.88,-38.57 -160.44,-73.5 -142.09,-162.36 -28.32,-407.76 167.13,-407.76zm-474.56 220.57c0,168.68 38.48,261.04 152.03,376 154.82,156.75 426.7,171.23 612.75,41.21 16.74,-11.71 17.98,-14.52 33.54,-26.62 15.33,-11.94 19,-13.77 32.4,-27.75 130.74,-136.43 177.15,-360.17 98.37,-536.63 -72.79,-163.03 -240.64,-287.41 -421.1,-287.41 -160.42,0 -265.34,34.88 -372.7,141.96 -67.26,67.09 -135.28,187.25 -135.28,319.23z"/>
  <path class="fil0" d="M6824.19 7238.3c0,-317.61 481.24,-317.61 481.24,0 0,320.3 -481.24,320.3 -481.24,0zm274.05 -481.24c-174.37,0 -267.7,31.85 -389.38,152.03 -168.02,165.96 -167.47,472.11 -13.41,645.11l60.21 60.09c103.02,98.85 274.92,127.65 410.28,99.44 31.4,-6.55 63.31,-17.74 91.86,-28.45 342.6,-128.54 416.61,-683.51 29.89,-877.05 -46.91,-23.49 -123.22,-51.17 -189.45,-51.17z"/>
  <path class="fil0" d="M3716.15 6970.94c0.89,1.4 1.96,2.05 2.25,4.43 0.3,2.4 1.78,3.48 2.16,4.52l8.29 31.82c3.81,22.89 4.16,28.78 8.91,51.24l71.96 268.92 -180.47 0c20.13,-41.95 86.89,-331.63 86.89,-360.93zm-494.61 741.92l314.15 0c7.24,-31.08 31.9,-159.33 57.25,-183.37l216.79 -190.93 93.66 374.27 314.06 0.02 -230.07 -712.36c-22.77,-80.27 -59.34,-159.31 -77.39,-236.76l-360.93 0 -203.04 592.35c-14.78,44.35 -27.31,74.96 -41.76,118.66l-82.72 238.11z"/>
  <path class="fil0" d="M6389.73 8307.73l53.47 0c119.17,0 244.74,125.2 247.31,240.62l-554.77 0c9.79,-117.6 127.87,-240.62 254,-240.62zm-367.62 260.67c0,95.03 -2.94,121.49 40.02,207.28 107.31,214.27 384.35,289.61 586.5,145.19 48.44,-34.61 122.81,-113.88 128.76,-185.37l-120.31 0c-23.11,99.22 -136.09,153.73 -260.67,153.73 -127.98,0 -250.81,-122.12 -260.67,-240.62l601.68 0.13c73.26,0.98 66.72,10.08 66.72,-66.96 0,-107.63 -56.21,-207.26 -111.93,-262.38 -17.17,-16.99 -29.55,-31.89 -48.29,-45.28 -17.75,-12.69 -38.21,-22.41 -58.94,-34.63 -150.81,-88.91 -416.26,-31 -522.84,181.8 -20.68,41.28 -40.02,85.06 -40.02,147.12z"/>
  <path class="fil0" d="M5534.18 8307.73c89.63,0 149.35,4.81 219.17,74.93 33.95,34.09 80.2,102.36 81.61,165.7l-554.76 0c2.49,-111.87 128.94,-240.62 253.98,-240.62zm-367.61 260.67c0,134.76 20.77,219.03 121.84,319.3 91.2,90.48 265.74,137.61 403.56,85.79 40.31,-15.15 69.12,-29.75 101.12,-52.61 32.23,-23.02 53.88,-44.31 77.35,-76.38 18.07,-24.69 48.47,-73.63 51.42,-109l-120.31 0c-23.11,99.22 -136.09,153.73 -260.67,153.73 -127.98,0 -250.81,-122.12 -260.67,-240.62l661.71 0c28.44,-122.06 -31.37,-256.13 -105.24,-329.21 -159.26,-157.55 -401.3,-158.48 -551.49,-6.69 -45.28,45.77 -47.12,45.84 -78.58,108.57 -20.7,41.26 -40.02,85.08 -40.02,147.12z"/>
  <path class="fil0" d="M3716.15 8240.89c0,111.01 105.8,192.28 172.74,241.67 74.15,54.69 208.24,123.04 208.24,212.84 0,155.99 -69.45,187.15 -207.2,187.15 -68.26,0 -134.05,-39.09 -167.1,-46.79l0 120.31c29.7,6.92 38.88,15.31 70.69,22.89 104,24.78 258.48,21.48 339.85,-60.17 72.01,-72.26 77.39,-126.07 77.39,-223.39 0,-218.32 -380.98,-308.35 -380.98,-461.19 0,-138.46 128.57,-158.76 236.81,-136.56 46.44,9.53 62.21,28.1 97.39,36.3l0 -120.31c-93.46,-21.77 -45.83,-33.42 -200.52,-33.42 -131.89,0 -247.31,99.37 -247.31,260.67z"/>
  <path class="fil0" d="M6911.08 8702.09c0,93.93 12.98,156.37 57.06,210.31 58.35,71.39 139.26,77.09 237.04,77.09l0 -106.94c-106.77,0 -180.46,-27.2 -180.46,-133.69l0 -427.76 180.46 0 0 -106.95 -180.46 0 0 -200.52 -113.63 0 0 688.45z"/>
  <path class="fil0" d="M4337.76 8768.92c0,66.66 36.21,128.06 71.56,162.39 44.3,43.04 222.54,88.8 222.54,38.13l0 -86.89c-127.33,0 -187.15,-32.37 -187.15,-160.41l0 -401.04 187.15 0c0,-136.5 36.48,-106.95 -187.15,-106.95l0 -200.52 -106.94 0 0 755.28z"/>
  <path class="fil0" d="M4845.74 8341.15l0 -127 -106.95 0 0 748.61c0,30.27 34.29,20.05 106.95,20.05l0 -347.57c0,-251.66 81.91,-327.52 307.45,-327.52l0 -100.26c-100.68,-23.45 -198.7,13.22 -265.88,81.69l-29.71 37.13c-6.19,8.44 -6.41,8.58 -11.86,14.87z"/>
 </g>
</svg>
