<svg width="242" height="77" viewBox="0 0 242 77" fill="none" xmlns="http://www.w3.org/2000/svg">
<mask id="mask0_70_3" style="mask-type:luminance" maskUnits="userSpaceOnUse" x="0" y="0" width="48" height="71">
<path d="M0 0H48V70.1322H0V0Z" fill="white"/>
</mask>
<g mask="url(#mask0_70_3)">
<path d="M93.9457 17.8585C93.9274 18.1153 93.8724 18.1764 93.6156 18.2253C93.2365 18.2926 92.8514 18.3843 92.4662 18.3904C91.6836 18.4087 90.9133 18.4943 90.1368 18.5371C89.1036 18.5922 85.9243 18.0175 84.9706 17.7974C82.8002 17.296 80.1101 16.5624 76.1483 14.9605C75.0111 14.4959 76.295 13.9578 74.4303 11.7141C73.9656 11.1516 73.0852 10.9926 72.9568 10.7419C73.6232 10.3568 76.8636 9.73316 77.5545 9.617C79.1502 9.3541 81.6997 9.36633 83.2587 9.43969C87.3611 9.62311 87.8808 10.1489 88.7062 10.2773C89.77 10.4424 90.5403 10.9009 92.564 12.1237C93.8051 12.8757 93.6706 13.1753 93.8418 13.2547C94.1108 13.377 94.3615 13.2914 93.9457 17.8585ZM93.1448 25.8493C93.0776 25.9961 92.9798 26.0755 92.8147 26.0755C89.0852 26.0816 90.6565 25.9166 87.7952 25.6537C87.196 25.5987 86.6274 25.4213 86.0711 25.2135C84.5793 24.651 83.0447 24.1802 81.5957 23.4955C81.0394 23.2326 80.4952 22.9391 79.9266 22.7129C79.2052 22.4256 78.5632 21.967 77.8112 21.7408C75.9587 21.1844 74.7543 20.0595 73.4948 19.8333C73.0302 19.7538 73.452 19.5581 74.2958 18.4638C75.7081 16.6235 75.1823 15.0522 75.8059 15.3946C78.0436 16.6235 87.3305 19.4236 90.7482 19.0874C92.5946 18.904 91.1762 19.1363 93.2549 18.8734C93.4566 18.8489 93.8051 18.7083 93.8051 19.0201C93.8112 20.0411 94.441 23.0797 93.1448 25.8493ZM91.1089 32.7274C90.6993 34.1397 90.1123 35.7477 89.2258 36.9154C87.6851 38.9391 87.4039 41.8249 84.347 44.2032C83.7661 44.6556 83.1853 44.6984 82.5128 44.4599C81.3634 44.0503 79.4375 42.7847 78.4899 42.0144C75.4635 39.5627 75.5674 39.471 74.5525 38.4989C74.0329 38.0037 73.287 37.3434 73.2381 37.2884C72.645 36.5425 70.8475 34.7878 69.5636 33.1554C68.0413 31.2112 66.5739 29.8172 66.5678 29.8172C65.4245 28.6372 64.752 27.7446 62.8017 26.3873C62.2698 26.0144 61.6034 25.6598 61.4322 24.9322C62.4654 24.2475 64.0795 23.9968 65.2533 23.5383C66.5128 23.0431 66.6534 22.9941 66.6901 23.2387C66.7818 23.8623 67.4177 22.9575 73.7822 27.7874C77.6462 30.7221 84.4937 35.0813 88.8773 36.0106C88.9874 36.035 89.3726 36.0717 89.5438 36.0289C89.88 35.9494 89.8433 35.4053 89.4887 35.4603C87.8747 35.7049 82.3905 32.7396 80.9782 31.951C78.2209 30.4103 74.5403 27.7018 71.4528 25.5192C66.9469 22.3338 65.7669 23.3549 69.368 21.9915C69.6003 21.8998 70.0772 21.6002 70.3523 21.4962C72.3577 20.732 72.3088 20.0901 73.0913 20.2612C73.8678 20.4385 74.8216 20.9032 75.2434 21.16C76.6496 22.0159 77.2243 21.9609 78.6672 22.6701C82.0359 24.3331 81.9748 24.3392 86.499 25.9227C87.41 26.2467 88.2293 26.2284 89.5254 26.4424C91.5246 26.7725 91.3779 26.5524 92.7291 26.6686C91.1578 31.095 91.9221 29.8967 91.1089 32.7274ZM82.8307 47.2112C82.684 47.3335 82.5495 47.2723 82.3477 47.199C81.8708 47.1928 81.394 47.1256 80.911 47.1072C79.5659 47.0461 78.227 47.1011 76.8758 47.1562C75.2984 47.2234 73.7272 47.1195 72.1559 46.9605C71.0615 46.8505 69.7165 46.3552 68.6649 46.0129C65.9748 45.1141 66.0848 44.9307 64.2568 44.142C63.9389 44.0014 63.7738 43.9158 60.937 41.7209C58.8643 40.113 59.0355 40.0824 56.0764 37.1172C55.8258 36.8665 55.5751 36.6281 55.3183 36.3896C55.1716 36.2551 54.9026 36.1023 54.9026 35.8822C55.1043 35.8149 55.5384 36.3224 55.6729 36.4569C56.0092 36.7809 56.3332 37.1111 56.6695 37.4351C57.5743 38.3155 58.5403 39.1348 59.6041 39.8073C59.7509 39.899 60.0321 40.058 60.0871 39.899C60.1544 39.7217 59.8548 39.575 59.8059 39.5383C59.06 39.0492 58.3691 38.4989 57.7149 37.8936C57.3298 37.539 56.9507 37.1722 56.5655 36.8115C56.3149 36.573 56.0642 36.3346 55.8135 36.0962C55.6729 35.9678 55.5384 35.8333 55.3978 35.7049C55.3305 35.6437 55.0615 35.4236 55.2572 35.3808C55.3366 35.3625 55.6301 35.6132 55.7035 35.6621C55.8747 35.7721 56.0459 35.8883 56.217 36.0045C56.7734 36.3835 57.3114 36.7931 57.8372 37.2211C58.6687 37.8998 59.4635 38.6395 60.3684 39.2265C60.8697 39.5505 61.4016 39.8256 61.9519 40.058C63.0524 40.5165 63.2969 40.6816 63.4131 40.5104C63.4498 40.4492 63.4008 40.3881 63.3458 40.3575C62.4349 39.9112 61.4444 39.5322 60.6007 38.9575C59.6286 38.2849 58.7421 37.4779 57.8005 36.7565C57.4643 36.4997 57.128 36.2429 56.7917 35.9922C56.5961 35.8455 56.4005 35.6988 56.1987 35.552C56.1376 35.5031 55.624 35.1791 55.7524 35.1118C55.8686 35.0446 56.3943 35.3442 56.5166 35.4053C57.3053 35.7966 58.0145 36.3652 58.7115 36.891C60.136 37.967 61.2916 38.4622 61.3955 38.4867C61.6706 38.5539 61.744 38.3766 61.4994 38.2421C59.3107 37.0316 59.274 36.6648 57.287 35.3808C56.321 34.7572 56.8284 35.1669 53.637 33.4917C53.2029 33.2654 53.3558 33.1737 53.6553 33.2654C54.6274 33.5834 55.5751 33.9685 56.4555 34.4882C56.7673 34.6716 57.0608 34.8734 57.3603 35.069C57.501 35.1607 57.6355 35.2463 57.77 35.338C57.8433 35.3808 58.0145 35.552 58.1062 35.497C58.2468 35.4114 58.0818 35.3442 58.0818 35.2586C58.0757 35.228 58.039 35.1852 58.039 35.1424C58.3019 35.1546 58.6381 35.4481 58.8582 35.5765C59.6775 36.0595 60.509 36.518 61.3527 36.946C62.8934 37.7225 64.3363 38.6579 65.8586 39.4649C65.8647 39.4649 73.2564 43.2616 73.9656 43.5918C76.0382 44.5578 79.0646 45.481 80.9843 45.5054C81.7547 45.5176 82.6962 46.3675 82.8307 47.2112ZM83.2159 48.3056C83.4849 49.3755 84.5304 51.8761 83.2587 55.8073C82.6106 57.8126 80.1834 61.7438 79.4864 62.6242C79.358 62.7893 79.2908 62.7954 79.1257 62.6976C78.5816 62.3675 78.0313 62.0495 77.4994 61.701C74.8032 59.9525 72.7428 57.5253 71.3489 56.3392C71.1777 56.1986 69.0073 53.857 66.739 50.7511C66.2682 50.103 64.7031 47.6391 63.4192 45.7194C61.7134 43.1577 61.6828 43.3839 61.7501 43.1455C62.1047 43.2372 62.9484 44.2154 64.7276 45.053C66.4945 45.8906 66.7451 45.8906 67.3198 46.5325C70.5052 50.0847 71.1471 50.1519 73.2809 52.0228C75.115 53.6246 82.0604 57.7576 82.3233 57.0117C82.3661 56.8894 82.3172 56.6693 82.2255 56.6143C81.8525 56.382 82.0726 56.8894 77.8418 54.4255C75.2984 52.9399 75.0906 52.7993 74.1246 52.0228C74.1001 52.0044 67.9496 47.1134 68.0168 46.5081C68.4509 46.4408 70.2973 47.5046 73.073 47.6086C74.9377 47.6758 76.1116 47.8837 77.8051 47.7003C78.924 47.578 80.055 47.5964 81.1861 47.6147C81.718 47.6208 82.2377 47.7737 82.7574 47.8837C82.9958 47.9326 83.1486 48.0427 83.2159 48.3056ZM77.2426 64.9475C77.047 65.1615 76.8208 65.1921 76.5762 65.1004C75.0906 64.5685 73.9534 63.7981 72.6022 63.0278C72.3638 62.8933 70.444 61.2608 70.1383 60.9918C69.0011 59.9647 67.9068 58.6808 66.9469 57.4275C65.9075 56.0763 66.0726 56.4553 65.8525 56.1007C65.0271 54.7863 65.1311 55.2937 63.2052 52.194C63.1502 52.1023 63.1441 52.0962 63.1502 52.1023C63.0951 52.0167 62.7039 51.4175 60.564 48.1221C60.3133 47.7309 60.5823 47.9693 59.5124 46.3186C58.3141 44.4599 58.6259 44.7045 57.5804 42.962C53.1479 35.6132 53.2457 36.2979 53.2946 35.9617C53.3191 35.8088 53.1846 35.7049 53.0929 35.5948C52.5243 34.8795 52.5671 35.0079 52.6771 34.8795C53.8265 35.552 57.0669 38.9636 57.9901 39.9418C59.6714 41.7148 60.0443 41.4886 60.7535 42.7175C61.4689 43.9525 61.2854 43.4878 64.3546 48.1527C67.0203 52.2062 66.9041 51.9739 69.0929 54.6579C70.3645 56.2169 75.8242 61.646 78.4654 62.9911C78.606 63.0644 78.7833 63.0706 78.8995 63.2234C78.5266 63.7675 77.5911 64.5623 77.2426 64.9475ZM72.5044 66.7756C71.6729 66.586 70.3156 66.6044 68.9094 65.6384C65.9075 63.578 64.214 62.343 60.4662 57.727C59.7937 56.9017 59.6225 56.3453 57.7639 52.9643C56.0153 49.779 55.8624 48.6846 54.9209 46.502C54.2239 44.8757 54.4746 45.0102 54.2056 44.2887C53.7532 43.0476 52.1269 38.5478 51.1731 36.8298C50.9713 36.4691 51.1853 36.3713 51.2587 36.4385C51.65 36.8176 52.8544 39.3182 53.2274 40.2597C54.8659 44.3805 54.6458 44.356 55.5017 45.8906C55.5017 45.3159 55.465 45.2609 54.0588 41.4886C52.6099 37.6185 52.457 37.9364 52.3592 37.6735C52.2125 37.2639 51.9924 36.8787 51.76 36.5119C51.65 36.3468 51.546 36.1818 51.436 36.0228C51.4054 35.9739 51.2954 35.8516 51.3015 35.7905C51.3321 35.5337 51.5216 35.8088 51.5766 35.8761C51.7233 36.0717 51.8823 36.249 52.0046 36.4569C55.3672 42.2712 54.9637 43.011 55.9541 43.7813C56.0031 43.5979 55.9114 43.4573 55.838 43.3166C54.2362 40.2169 54.5969 39.9785 51.705 35.3931C51.9373 35.3503 52.0474 35.4542 52.1513 35.5887C57.7027 42.8826 60.2767 50.3231 68.4509 60.0931C69.3191 61.1263 69.3191 60.9062 69.8204 61.4076C71.838 63.4129 73.77 64.5073 76.405 65.6751C75.7081 66.5677 74.2713 67.1668 72.5044 66.7756ZM50.9713 35.1669C50.9469 35.1363 50.8613 34.7572 50.898 34.7511C51.0569 34.7328 51.1242 34.8428 51.2159 34.9223C51.2587 34.959 51.3137 35.0324 51.2465 35.069C51.167 35.1118 51.1242 35.1852 51.1364 35.2769C51.0692 35.283 51.0141 35.2341 50.9713 35.1669ZM50.9591 27.7935L50.953 27.818C50.9224 27.8058 50.9285 27.7996 50.9591 27.7935ZM51.1486 27.2249C51.8334 26.0939 52.4876 24.9322 53.3435 23.9173C54.5052 22.5356 55.9358 21.3679 57.3175 20.2123C57.6783 19.9128 58.039 19.6132 58.3997 19.3136C58.5953 19.1485 58.7971 18.9834 58.9989 18.8184C59.0661 18.7633 59.2251 18.5738 59.3107 18.5616C59.3596 18.5555 59.4085 18.5677 59.4391 18.6044C59.3901 18.7572 59.2006 18.8245 59.0906 18.9345C56.052 22.0832 55.2388 22.0709 51.3015 27.4634C51.2159 27.5857 51.1609 27.7568 50.9713 27.7752C50.9224 27.5612 51.0508 27.39 51.1486 27.2249ZM61.3099 16.7886C61.9763 16.1466 62.7589 15.6575 63.517 15.1256C63.6576 15.0278 63.8533 14.9666 63.7065 15.2051C63.6393 15.3151 63.4314 15.4129 63.3275 15.4924C63.1196 15.6514 62.9178 15.8103 62.71 15.9754C62.4349 16.1833 62.1597 16.3973 61.8846 16.6113C61.7195 16.7397 61.5545 16.8742 61.3833 17.0026C61.1815 17.1554 59.9465 18.4699 59.7386 18.2865C59.6164 18.1764 61.1448 16.9536 61.3099 16.7886ZM54.4501 32.2628C52.029 30.8382 52.0046 31.2601 51.9557 30.9116C51.8884 30.4653 52.0107 29.3831 52.1697 28.9796C52.2247 28.8573 52.3286 28.7901 52.4326 28.729C54.9331 27.2922 54.4012 27.4939 55.196 28.0564C55.7707 28.4661 56.2293 28.9918 56.6206 29.5727C57.2809 30.5387 57.8984 31.5291 58.4792 32.544C61.047 37.0744 61.5117 36.4202 54.4501 32.2628ZM55.6607 27.7446C54.8414 27.2127 54.6641 27.3839 60.2155 25.293C60.3745 25.2318 60.5823 25.1523 60.7291 25.3052C60.778 25.3602 60.7841 25.4886 60.8391 25.562C60.9125 25.6537 61.0409 25.727 61.1387 25.7943C61.7746 26.2406 62.3615 26.7542 63.0157 27.1821C66.6106 29.5482 74.8705 41.7454 81.7853 44.7473C82.9713 45.2609 78.606 45.0958 74.308 43.2066C71.6851 42.0572 70.1078 41.0362 69.6553 40.8222C68.4509 40.2536 66.2193 39.1042 64.214 37.967C62.8934 37.215 61.475 36.6648 60.6741 35.283C59.2923 32.8864 57.1219 28.6862 55.6607 27.7446ZM70.4868 11.6223C70.8842 11.4328 72.4188 11.0843 73.5804 11.763C74.6137 12.3743 75.2434 13.6277 75.0417 14.9789C74.6259 17.7729 72.9752 19.5704 71.1716 20.5058C68.2797 22.0098 62.8261 23.8379 59.2495 25.079C53.8571 26.9498 53.961 27.5367 53.8632 26.9315C53.8449 26.8398 53.8449 26.7664 53.9305 26.7236C57.397 24.8161 62.3003 23.092 62.4838 22.8413C62.8017 22.4194 63.5537 22.3766 63.5537 22.0587C62.5999 22.236 55.086 25.6109 55.086 25.6109C54.9759 25.4091 55.2083 25.3786 55.9725 24.7733C55.9725 24.7672 58.3202 22.9024 58.3508 22.8535C58.4058 22.7557 58.3324 22.7068 58.253 22.719C58.0451 22.7496 57.88 22.8535 57.7027 22.9697C57.0913 23.3793 56.5044 23.844 55.9175 24.2842C55.6485 24.4798 55.3856 24.6755 55.1227 24.8711C54.9698 24.9873 54.817 25.1034 54.658 25.2196C54.499 25.3358 54.2973 25.3786 54.4196 25.1646C54.5541 24.92 54.8414 24.6938 55.0371 24.4982C55.4834 24.0396 55.948 23.6055 56.4188 23.1776C56.8284 22.8046 57.2442 22.4378 57.6538 22.0587C57.8372 21.8875 58.2224 21.6369 58.3141 21.3862C58.3202 21.3617 58.3508 21.3251 58.3263 21.3006C58.0757 21.105 57.9167 21.3312 55.4834 23.3915C55.3611 23.4955 55.2449 23.6116 55.0921 23.6667C55.2266 23.5627 55.3183 23.257 56.8345 21.8753C58.6504 20.2246 58.7665 19.9617 59.9954 18.9529C63.0768 16.434 65.4734 14.0985 70.4868 11.6223ZM76.7046 9.01784C77.8235 8.77328 77.3894 8.65712 80.7276 8.20469C81.8525 8.05185 81.6691 8.29028 84.4081 7.99682C86.0161 7.82563 87.3 7.899 89.6477 8.45536C90.2285 8.59598 90.7543 8.87722 91.2679 9.17068C92.1116 9.65368 92.7169 10.3629 93.2977 11.1149C93.744 11.6835 93.8785 11.8424 93.8968 12.087C93.7623 12.2093 93.7195 12.032 93.4383 11.8669C89.6232 9.64145 90.3936 10.0327 89.073 9.64757C85.9488 8.74271 82.684 8.84665 80.2935 8.82219C77.5055 8.79162 77.0103 9.29907 76.5579 9.12789C76.6129 9.08509 76.6557 9.03006 76.7046 9.01784ZM49.7486 22.7068C49.7791 22.6762 49.7975 22.6273 49.828 22.6212C50.0604 22.5723 50.2316 22.7251 50.2132 22.9575C50.2071 23.0369 50.0971 23.1042 50.0359 23.0675C49.9259 22.988 49.7363 22.8413 49.7486 22.7068ZM49.7119 30.3675C49.5774 30.6426 49.3573 30.8566 49.1555 31.0828C48.9599 31.2968 49.2472 31.2662 49.2839 31.4068C49.3328 31.6025 48.8376 31.6697 49.076 31.9326C49.1188 31.9815 49.0822 32.0427 49.0699 32.0977C49.0577 32.1588 49.0149 32.2628 49.0822 32.3117C49.1433 32.3545 49.235 32.3117 49.2961 32.2872C49.3267 32.275 49.4184 32.2139 49.4429 32.275C49.4734 32.3484 49.3817 32.4095 49.3451 32.4523C49.2839 32.5318 49.2167 32.6051 49.1372 32.6663C49.0822 32.7091 48.9415 32.7947 48.9904 32.8803C49.1433 33.1554 48.9415 33.2532 48.7765 33.3694C48.6114 33.4855 48.6114 33.6873 48.4891 33.8279C48.1895 34.1886 48.0061 34.2009 47.6943 33.8524C47.2235 33.3327 47.8961 33.2165 47.4131 32.6969C47.358 32.6418 47.2663 32.5379 47.2847 32.5012C47.4314 32.2016 47.248 31.9999 47.1013 31.7798C47.034 31.682 47.2908 31.578 47.2235 31.4129C47.1563 31.2662 46.979 31.1623 47.0034 30.985C47.0279 30.7893 47.2908 30.8077 47.0524 29.9028C46.9851 29.6399 47.0218 29.3587 46.875 29.1019C46.7772 28.9368 47.1318 28.7656 46.9912 28.6006C46.5755 28.0992 47.2602 27.763 47.1135 27.3228C46.9423 26.7909 46.7222 26.5341 47.3275 26.0511C47.4436 26.3079 47.4008 26.5769 47.5659 26.7603C47.7432 26.9559 47.7249 27.2249 47.8472 27.4328C48.0428 27.7507 47.9327 28.0442 48.1039 28.356C48.4769 29.0346 47.8777 29.0652 48.0367 29.3159C48.159 29.5115 48.2262 29.7194 48.2568 29.9517C48.2751 30.1229 48.6664 29.9517 48.6358 29.7561C48.5808 29.377 48.7459 29.0346 48.7581 28.68C48.7703 28.3377 48.7765 27.9953 48.7459 27.6529C48.7276 27.3717 48.6542 27.0232 48.8193 26.7664C48.9721 26.5218 49.2228 26.3812 48.8804 26.1306C49.076 26.0633 49.1922 26.1 49.3023 26.1611C49.7547 26.3873 48.8926 26.9437 49.4245 27.011C49.6997 27.0415 49.5468 27.1944 49.2533 27.8791C49.1127 28.2032 49.7058 27.8669 49.559 28.2154C49.3145 28.8023 49.1494 28.9063 49.4184 28.9918C49.7608 29.1019 48.8193 29.7867 49.0822 29.9578C49.1616 30.0129 49.2289 29.8784 49.2961 29.9884C49.3328 30.0495 49.29 30.1168 49.2717 30.1718C49.2228 30.2941 49.0822 30.3797 49.0394 30.502C49.021 30.5509 49.021 30.5815 49.0699 30.5998C49.2105 30.6487 49.1922 30.6426 49.6935 30.1046C49.8464 30.2024 49.7486 30.2941 49.7119 30.3675ZM49.4673 39.6667C49.2717 40.0274 49.449 40.4064 49.4001 40.7794C49.2778 41.6231 48.1406 42.8275 48.6603 42.7909C48.752 42.7847 48.8315 42.6991 48.911 42.6686C48.9721 42.8275 48.3607 43.4267 48.7642 43.445C49.0088 43.4573 48.8131 43.714 48.5992 44.0075C48.5136 44.1237 48.4952 44.2093 48.5992 44.3254C48.7092 44.4538 48.5441 44.5394 48.5136 44.6495C48.4524 44.8879 48.7031 44.8145 48.9721 44.784C49.0332 44.9246 48.9232 45.0041 48.5502 45.4687C48.6358 45.7133 48.9354 45.4504 49.1616 45.5849C48.9843 45.8111 48.7948 46.0434 48.6175 46.2758C48.5319 46.3858 48.5992 46.4897 48.7642 46.4775C49.125 46.4469 48.911 46.7588 48.9477 46.9177C49.0332 47.2417 48.9782 47.5658 48.8437 47.8776C48.697 48.2077 48.6358 48.0916 48.3974 47.9204C48.159 47.7492 48.0917 47.4374 47.8655 47.2601C47.7921 47.199 47.8838 47.1562 47.9205 47.1134C48.1895 46.8138 47.6026 46.8566 47.462 46.4653C47.4192 46.3369 47.7677 46.5203 47.7799 46.5325C47.8655 46.5998 47.9511 46.557 47.9755 46.4714C48 46.3919 47.8227 46.2024 47.786 46.1351C47.7432 46.0618 47.6454 45.9578 47.7004 45.8722C47.9022 45.5238 47.3397 45.4993 47.4681 45.2731C47.5231 45.1814 47.6087 45.2119 47.6882 45.2364C47.7188 45.2486 47.7616 45.2303 47.8044 45.2242C47.8227 44.9124 47.4253 44.5272 47.676 44.5455C47.7799 44.5578 47.89 44.7289 47.9878 44.5639C48.1101 44.3621 47.731 44.3682 47.1257 43.1332C47.3825 43.1455 47.4192 43.5245 47.7065 43.5245C47.8777 43.2188 47.1807 42.6869 47.303 42.4301C47.3519 42.3262 47.4987 42.4546 47.6332 42.4668C47.8105 42.4913 47.7249 42.2956 47.6148 42.1489C47.4925 41.9838 47.3519 41.831 47.4192 41.5986C47.4498 41.4886 47.3642 41.4091 47.3152 41.3174C46.8078 40.3698 46.7405 40.2903 46.9423 40.1252C47.1502 39.9479 46.6855 39.7645 46.5938 39.202C46.5694 39.0308 46.5938 38.9819 46.8139 38.9452C46.9362 38.9269 47.0401 38.8657 46.9973 38.7618C46.9056 38.5478 47.0034 38.3155 46.9117 38.1015C46.8506 37.9548 46.8995 37.8325 47.034 37.7347C47.2969 37.539 46.9545 37.3801 46.8873 37.0255C46.8689 36.9154 46.9301 36.8604 47.0951 36.8849C47.5292 36.946 47.0707 36.1879 47.1441 35.821C47.2725 35.2035 47.6637 35.7844 47.6332 35.8761C47.5231 36.1879 47.7432 36.4569 47.7432 36.7565C47.7371 37.0316 47.7188 37.3251 47.8533 37.5941C47.8838 37.6613 47.89 37.7653 47.8594 37.8325C47.6209 38.3155 47.8838 38.7312 48.0122 39.1714C48.2996 40.1558 47.786 40.1252 47.9755 40.3881C48.2629 40.7855 48.0122 41.1646 47.9694 41.5681C47.9694 41.5986 48.0489 41.7454 48.1406 41.6598C48.3607 41.4397 48.5136 41.1707 48.6542 40.8956C48.7887 40.6265 48.483 40.1374 48.697 39.8195C48.7826 39.685 48.5625 39.7461 48.4585 38.5478C48.4463 38.3889 48.4524 38.2727 48.5564 38.1627C48.8376 37.8692 48.1712 37.7225 48.6603 37.0377C48.9415 36.6464 48.4402 36.7198 48.6664 36.249C48.7703 36.035 48.8131 35.821 48.7214 35.5948C48.7153 35.5826 48.7642 35.5459 48.7826 35.5215C48.8131 35.5459 48.8559 35.5643 48.8682 35.5948C49.1433 36.3652 48.593 36.8237 49.0822 37.0194C49.125 37.0316 49.125 37.1661 49.125 37.2395C49.125 37.3434 49.0944 37.4657 49.2044 37.5085C49.3573 37.5757 49.3695 37.6919 49.3267 37.808C49.1555 38.3033 49.2656 38.8107 49.2411 39.3059C49.2411 39.3977 49.2595 39.471 49.3634 39.4894C49.4734 39.5016 49.504 39.6055 49.4673 39.6667ZM49.1678 45.5788V45.5665C49.1678 45.5665 49.1739 45.5665 49.18 45.5665C49.1739 45.5727 49.1739 45.5727 49.1678 45.5788ZM46.5266 24.2108C46.551 23.2448 47.7188 23.0186 47.4436 23.361C47.303 23.5383 47.572 23.6728 47.4559 23.8134C47.3214 23.9785 47.4559 24.0702 47.5231 24.1863C47.6393 24.3942 47.6943 24.5899 47.462 24.7855C47.3458 24.8833 47.3947 24.9812 47.5598 25.0484C47.6515 25.0851 47.7554 25.0912 47.8227 25.1768C48 25.4091 47.6576 25.3969 47.2847 25.4519C46.9362 25.4641 46.8017 25.3969 46.7283 25.1585C46.6366 24.8528 46.5204 24.541 46.5266 24.2108ZM46.1536 23.2326C46.1108 23.2632 45.9947 23.1959 46.013 23.1042C46.068 22.8474 46.2148 22.7618 46.6122 22.774C46.5143 22.9941 46.3187 23.0981 46.1536 23.2326ZM48.5747 25.0545C48.8498 25.0362 49.0271 24.9139 48.9415 24.6449C48.9293 24.6143 48.9599 24.5715 48.966 24.5287C48.9843 24.4187 49.1739 24.3514 49.0577 24.223C48.9599 24.1069 48.8193 24.2353 48.642 24.1374C49.0394 23.7278 49.0394 23.7461 48.7153 23.6178C48.6236 23.5872 48.6053 23.4833 48.6786 23.4282C49.0577 23.147 49.1555 23.0614 49.3023 23.202C49.4001 23.2998 49.5162 23.3915 49.5529 23.5566C49.3206 23.8379 49.076 24.0274 49.4184 24.1313C49.4734 24.1436 49.5285 24.1558 49.5835 24.168C49.5896 24.1741 49.5957 24.2169 49.5896 24.2291C49.4001 24.4248 49.6263 24.651 49.5346 24.8711C49.2595 25.5131 49.2411 25.5314 48.5319 25.403C48.1956 25.3419 48.1101 25.3296 48.1162 25.2379C48.1162 25.0178 48.5075 25.0606 48.5747 25.0545ZM41.1464 47.2234C41.8739 47.1684 41.9534 43.2249 44.7841 37.1111C44.8636 36.9338 44.937 36.7442 45.1387 36.6097C45.1387 36.6953 45.1509 36.7565 45.1326 36.8115C44.0321 39.8134 41.0302 51.1913 41.0302 51.1913C39.9969 55.4221 39.8441 56.0763 37.3619 61.9517C36.2063 64.6846 35.5155 65.4733 34.5984 66.5799C33.4184 68.0167 32.5686 68.842 30.6183 69.4106C29.744 69.6674 29.1693 69.4473 27.3535 69.0255C26.4608 68.8176 26.9377 68.5608 28.0138 67.0385C31.034 62.7587 35.0019 51.0996 36.3286 47.902C37.5392 44.998 38.7008 40.6938 44.1972 34.9773C44.35 34.8184 44.4968 34.6411 44.778 34.586C44.7474 34.8978 44.6374 35.1607 44.4968 35.3992C42.6198 38.6456 40.6083 44.8084 40.8345 44.784C41.2747 44.7289 42.3141 39.9296 44.7719 35.4787C44.8942 35.2647 45.0409 35.0629 45.0898 34.8184C45.102 34.7756 45.2488 34.6716 45.2916 34.8612C45.4811 35.6865 44.509 35.7905 43.2679 39.471C42.7176 41.1034 42.1123 42.7175 41.8066 44.4233C41.5682 45.7377 41.018 46.9789 41.1464 47.2234ZM26.4303 68.463C26.3447 68.5853 26.2346 68.6097 26.1123 68.5853C25.611 68.4813 25.1097 68.3835 24.6389 68.1695C24.1742 67.9555 21.4352 66.4699 21.0317 66.1886C20.2858 65.6689 20.3042 65.6445 20.7566 65.2349C21.4658 64.5868 22.4685 62.5998 23.1227 61.6521C24.2782 59.9769 26.1735 55.9234 26.9377 54.022C28.2705 50.7267 28.1544 50.7328 31.0829 46.233C32.3179 44.3315 33.3206 44.8145 36.2553 42.2712C37.0623 41.5742 37.8265 40.8283 38.6763 40.1863C39.3856 39.6544 39.6179 39.2387 39.8624 39.2631C39.6423 40.5654 38.7375 39.2142 33.8097 53.1233C33.7486 53.3006 29.7012 63.5474 27.8548 66.5371C27.4329 67.2219 26.8766 67.8027 26.4303 68.463ZM20.0168 65.2593C19.3443 64.7213 18.6718 63.9082 18.3661 63.6025C17.6202 62.8505 17.0271 62.0006 16.6603 61.0041C16.4341 60.3866 16.0917 59.818 15.7982 59.2372C15.4987 58.6441 15.5048 58.6135 16.0183 58.2284C16.6297 57.7821 17.1922 57.2685 17.8403 56.8711C18.9836 56.1619 18.9163 56.0946 19.7784 55.1042C20.4815 54.291 20.4264 54.4745 20.7749 54.022C22.1995 52.1573 22.8964 50.8306 23.4528 50.1214C23.8502 49.6262 24.2109 49.1004 24.5655 48.5807C25.183 47.6758 25.7639 47.9999 27.4941 47.1684C28.0015 46.9238 28.2094 47.0155 30.172 46.0985C30.2025 46.0801 30.4287 45.9884 30.4593 46.0373C30.4776 46.0679 30.5082 46.1168 30.496 46.1413C29.9519 47.0828 27.8609 50.1642 27.4024 51.4359C27.0539 52.3835 26.5892 53.2761 26.2713 54.2299C25.6416 56.0946 21.4964 64.1955 20.0168 65.2593ZM15.3397 58.0572C15.1318 57.9532 15.1991 57.7576 14.9545 56.9078C14.496 55.3304 14.8995 55.5383 14.7528 54.5967C14.6183 53.7591 14.765 52.9215 14.7528 52.0839C14.7467 51.3931 15.0707 50.7756 15.3275 50.1458C15.358 50.0725 15.4008 49.9869 15.4864 49.9746C15.731 49.938 15.8777 49.7729 16.0428 49.62C16.2568 49.4366 17.2839 49.1737 17.8097 49.137C19.4238 49.0331 20.6404 49.241 22.4379 48.7091C22.8109 48.599 23.1899 48.5012 23.569 48.4156C23.7218 48.3789 23.8808 48.3178 24.0764 48.4156C23.6362 49.0881 22.9392 49.9991 22.7742 50.1886C22.2117 50.8245 20.0657 54.9452 17.3267 56.6632C16.5441 57.1523 16.4891 57.5069 15.3397 58.0572ZM16.7765 47.8776C17.021 47.5658 17.4429 47.4985 17.7119 47.2051C17.8647 47.04 18.2744 47.3029 20.9583 46.3002C22.6763 45.6521 33.7608 37.8814 36.2308 36.5853C36.3042 36.5486 36.3836 36.5302 36.4876 36.6158C30.7956 40.5593 33.6018 38.6395 31.4436 40.1435C30.9423 40.492 30.9912 40.81 31.0768 40.81C31.3642 40.8344 31.1746 40.4737 32.2751 39.899C33.718 39.1409 37.8387 35.925 40.0887 35.1607C40.9018 34.8856 41.5193 34.4515 41.8984 34.5555C41.3359 35.283 40.0642 35.3931 37.5575 37.2211C37.5025 37.2639 37.3191 37.4901 37.368 37.5146C37.478 37.5696 37.4352 37.5757 37.7287 37.3801C38.0588 37.1661 40.2109 35.7721 40.5411 35.98C40.4555 36.1634 40.2598 36.2123 40.1253 36.3346C38.5785 37.7591 36.4142 39.0675 36.7077 39.2204C36.781 39.257 36.8422 39.1348 37.1173 38.9758C39.1655 37.7653 38.8964 37.9181 39.031 37.9181C39.031 38.1565 37.0256 39.8684 36.8361 40.0274C35.6378 41.0606 34.3233 41.5314 33.6263 42.3935C33.5774 42.4546 33.4979 42.528 33.6018 42.5952C33.6324 42.6197 33.7241 42.5891 33.7547 42.5585C34.3966 41.9166 34.6106 41.9777 35.7723 41.2746C36.0902 41.079 36.3959 40.865 36.6893 40.6449C38.175 39.5383 39.4773 38.2116 40.7673 36.891C41.2625 36.3896 41.7455 35.8761 42.2652 35.3992C42.4242 35.2463 42.5892 35.0935 42.7726 34.9773C42.8032 34.9529 42.9438 34.8489 42.9805 34.8612C43.0967 34.8917 42.8827 35.0751 42.8399 35.1241C42.7543 35.2097 42.6748 35.2952 42.5892 35.3808C42.4425 35.5398 42.2958 35.6988 42.149 35.8577C41.9289 36.0962 41.7088 36.3346 41.4948 36.573C41.0424 37.0744 40.6083 37.5818 40.1253 38.0526C39.0432 39.092 37.8999 40.058 36.7749 41.0423C36.1513 41.5864 35.1181 42.7481 31.9878 44.4722C31.5353 44.7228 30.441 45.432 29.6767 45.7439C25.6599 47.3885 25.1097 47.5536 24.4983 47.6636C22.4624 48.0304 21.906 48.6113 19.6255 48.5685C18.8857 48.5562 18.1521 48.6357 17.4184 48.6541C17.0638 48.6602 16.2812 49.1187 16.1345 48.9292C16.0122 48.7702 16.1345 48.6846 16.7765 47.8776ZM15.841 46.3858C15.6576 46.502 15.4742 46.5081 15.2663 46.4164C12.0504 44.998 12.295 43.2066 9.75774 41.5375C9.60489 41.4336 9.45204 41.3296 9.30531 41.2196C9.23195 41.1707 9.26251 41.0606 9.34811 41.0239C9.71494 40.865 10.2346 40.9567 11.8242 39.4894C15.9266 35.711 19.2465 31.3212 21.6186 29.2058C22.2056 28.6862 22.872 27.8486 23.7035 27.1149C27.0172 24.1802 27.1028 24.1497 27.488 23.9785C27.7325 23.8745 27.4819 23.5933 28.35 23.7461C30.6916 24.1558 29.0531 23.6606 34.5311 25.1157C34.7635 25.1829 34.9958 25.2746 35.222 25.3663C35.2465 25.3724 35.2587 25.4275 35.277 25.4703C35.0875 25.6842 33.7975 26.5341 33.6385 26.638C31.0951 28.2765 27.2495 33.6567 25.8189 35.442C17.3634 45.9639 18.0909 44.9796 15.841 46.3858ZM8.65113 40.7427C8.13756 40.9811 6.0833 37.9181 5.6431 36.3407C5.22736 34.8367 4.35919 33.4733 4.37142 33.2899C4.69545 32.8742 4.81161 33.9196 9.33588 30.2146C10.1613 29.5421 10.6198 29.053 11.8487 28.246C12.2461 27.9831 11.6164 28.3988 14.0191 26.6319C16.1039 25.1034 16.0061 25.1829 16.6664 24.5348C17.3756 23.844 18.2193 23.3304 19.0019 22.7312C19.2709 22.5234 19.6133 22.505 19.9007 22.3522C20.0107 22.291 20.671 22.5173 20.726 22.5356C22.0099 22.9819 23.2021 23.092 26.5953 23.5566C27.4085 23.6667 24.5472 24.9261 18.1093 32.0549C13.8235 36.8054 16.8926 33.6017 11.6164 38.9513C11.1334 39.4405 10.5892 39.8379 10.0206 40.2047C9.59878 40.4798 9.09744 40.5348 8.65113 40.7427ZM3.62553 32.4278C2.62285 30.5998 1.97478 29.0041 1.95644 26.7786C1.94421 24.5287 1.14329 24.0702 1.73634 24.0152C2.2927 23.9662 2.45166 24.2658 5.18456 23.526C7.77684 22.8291 11.4391 20.9766 14.227 19.5704C16.324 18.5127 16.214 18.3598 16.3791 19.0018C17.0088 21.4657 19.491 21.753 18.9958 22.0404C18.3538 22.4072 17.7975 22.8963 17.1922 23.3243C16.2812 23.9662 16.1528 24.4064 15.193 25.0423C14.9301 25.2196 12.5885 27.0599 11.1028 28.0992C8.34543 30.0373 6.49905 32.2811 4.22468 32.7152C3.95568 32.7702 3.77226 32.6907 3.62553 32.4278ZM1.11884 23.0553C0.874284 22.3766 0.715323 21.6797 0.623615 20.9643C0.605273 20.787 0.660299 20.6403 0.745892 20.4997C1.14329 19.8272 0.593045 19.7782 1.63852 18.4454C4.70768 14.5203 12.5457 14.4164 17.5407 14.6793C17.5713 14.6793 17.5957 14.7282 17.6569 14.7771C17.2472 15.2295 16.4096 15.6086 16.2507 17.1065C16.1895 17.6812 16.3424 17.9135 15.8472 18.1642C12.5762 19.821 14.4838 18.9896 7.77684 22.0832C6.81696 22.5295 5.2029 23.0797 3.37486 23.4343C2.80627 23.5444 2.23156 23.5077 1.66297 23.4588C1.40008 23.4405 1.21666 23.3365 1.11884 23.0553ZM1.06993 17.2777C1.44287 16.8803 1.99924 15.3701 4.56706 14.6671C6.65801 14.0862 6.10164 14.4714 8.07031 14.0801C9.32365 13.8356 14.2942 13.7867 14.8078 13.915C13.7379 14.3308 3.97402 13.5115 0.75812 18.6288C0.739778 18.6533 0.696981 18.6716 0.593045 18.7511C0.580819 18.1581 0.690867 17.6873 1.06993 17.2777ZM20.2614 14.9605C24.1865 15.847 21.3619 15.1073 26.0145 16.7091C28.1055 17.4244 28.9431 17.5834 29.9213 18.1703C30.3248 18.4149 30.5938 18.3231 31.0768 18.5677C35.2648 20.6953 36.4326 21.6002 36.7016 21.7347C37.2518 22.0037 37.7654 22.3828 38.2667 22.7374C39.1593 23.361 40.0336 24.0213 40.8712 24.7183C41.2258 25.0056 41.5743 25.2991 41.8984 25.617C41.984 25.7026 42.308 25.9594 42.0818 26.0205C41.9045 26.0633 41.6049 25.7332 41.4826 25.6414C41.1525 25.3969 40.8223 25.1462 40.4922 24.9017C38.3523 23.3182 36.1085 21.8814 33.7058 20.7198C32.9354 20.353 32.1345 20.0228 31.3458 19.6804C31.3397 19.6743 31.3152 19.6988 31.2847 19.711C31.6637 20.1756 31.8716 20.1756 34.3783 21.4168C34.9347 21.698 35.491 21.9915 36.0168 22.3277C36.1208 22.395 36.2614 22.4561 36.347 22.5417C36.5243 22.7129 36.3714 22.7374 36.1758 22.664C36.0657 22.6212 35.3687 22.3155 35.3871 22.5478C35.3993 22.6946 35.7356 22.7496 35.8395 22.7924C36.7688 23.1837 37.6064 23.74 38.4624 24.2536C38.7191 24.4064 39.1043 24.5654 39.3122 24.7855C39.5262 25.0117 39.2816 24.9628 39.1104 24.8711C38.9698 24.7977 38.8292 24.7305 38.6886 24.6571C38.4318 24.5348 38.175 24.4126 37.9182 24.2903C37.5269 24.113 37.1295 23.9357 36.7138 23.8073C36.5854 23.7706 36.3225 23.6606 36.1819 23.7156C36.1208 23.7339 35.9801 23.8317 36.1085 23.8929C37.7165 24.6938 38.5357 24.8956 38.927 25.244C39.1104 25.403 43.2067 27.6835 43.2495 28.1176C43.0539 28.2337 42.8888 28.1237 42.7421 28.0197C40.2293 26.2162 34.1093 24.1191 30.2392 23.4221C25.1219 22.5111 21.906 22.8902 18.5311 20.9582C17.2595 20.2307 16.8743 19.3564 16.7459 18.2498C16.5869 16.8864 17.0455 15.633 18.3538 15.2234C19.1486 14.9789 19.4971 14.7832 20.2614 14.9605ZM34.2499 36.4691C33.2656 37.6491 33.828 37.3434 33.1188 37.8264C33.021 37.8875 27.0844 41.8677 21.8204 45.1569C20.0352 46.2758 16.7459 46.9422 16.8865 46.4164C16.9171 46.3002 16.9415 46.3247 17.3573 46.0557C20.1697 44.2643 30.4043 29.5727 33.4123 27.4939C33.9809 27.0965 34.5434 26.6808 35.1242 26.3079C35.5032 26.0694 35.8823 25.7209 36.3531 25.7698C36.5243 25.7882 36.7138 25.8738 36.8789 25.9288C37.423 26.1122 37.961 26.3201 38.4929 26.528C38.6763 26.6013 41.0424 27.6285 40.8773 27.7752C38.8842 29.4932 36.0413 34.3354 34.2499 36.4691ZM40.0031 34.6961C39.9664 34.8367 39.8196 34.8184 39.734 34.8856C39.7157 34.8978 39.6668 34.8795 39.6362 34.8673C39.6485 34.8428 39.6546 34.8 39.679 34.7817C39.7707 34.7022 39.8808 34.6777 40.0031 34.6961ZM41.9106 33.9685C41.4948 34.1397 41.0852 34.317 40.6695 34.4882C40.5533 34.5432 40.3454 34.6777 40.2109 34.6716C40.1742 34.6716 40.1314 34.6533 40.1131 34.6227C40.0703 34.5432 40.3638 34.4454 40.4249 34.4149C40.5716 34.3415 40.7184 34.2681 40.8712 34.2009C41.1708 34.0602 41.4765 33.938 41.7883 33.8401C41.8372 33.8279 41.9778 33.7973 42.0023 33.8585C42.0023 33.8646 42.0023 33.8707 42.0023 33.8707C42.0084 33.9135 41.935 33.9563 41.9106 33.9685ZM42.9377 33.6078C42.8154 33.6751 42.6932 33.7301 42.5587 33.7729C42.4792 33.7912 42.2224 33.8829 42.1735 33.7851C42.1368 33.7118 42.5587 33.565 42.6015 33.5467C42.6932 33.51 42.7971 33.455 42.8949 33.4427C43.0111 33.4244 43.0355 33.5528 42.9377 33.6078ZM36.0107 35.9372C35.546 36.1818 35.3198 36.463 35.167 36.3835C35.008 36.304 35.4177 36.0473 35.8884 35.2341C36.4876 34.2192 37.5025 32.9231 37.5025 32.917C38.2239 31.9448 38.2239 31.7186 38.8414 31.0155C39.2755 30.5081 39.6362 29.9456 40.0703 29.4382C40.3393 29.1202 40.6572 28.8512 40.9324 28.5455C41.1158 28.3377 41.3298 27.9464 41.6721 28.0259C41.9656 28.0931 42.3691 28.4966 42.632 28.6678C43.0906 28.9613 43.5736 29.2425 43.9954 29.5788C44.4417 29.9334 44.4845 30.2452 44.564 30.7771C44.5762 31.2051 44.564 31.2356 44.2644 31.3396C41.2747 32.3484 38.4746 34.6349 36.0107 35.9372ZM29.7379 17.0331C30.9178 17.3938 32.0245 17.938 33.1678 18.3965C35.112 19.173 38.3523 21.0071 40.9385 23.2876C44.454 26.3873 44.9675 26.9192 45.1937 27.5918C45.2243 27.6835 45.3038 27.7935 45.1815 27.8669C44.1605 28.4661 44.7719 25.1523 32.0856 18.5127C31.1807 18.0419 29.4444 17.2226 27.8487 16.7213C25.4337 15.9632 26.8277 16.3361 24.7917 15.6514C27.005 15.8042 28.0994 16.5379 29.7379 17.0331ZM94.7467 16.0304C94.7405 15.7125 94.9117 14.2635 94.7772 12.8329C94.6672 11.6346 94.172 11.3472 93.4199 10.2712C92.9308 9.56197 92.3011 9.01784 91.5491 8.60821C91.1211 8.37588 90.7237 8.0763 90.2407 7.92957C89.3726 7.67278 88.4861 7.48937 87.5812 7.47103C86.4746 7.44657 85.368 7.416 84.2614 7.49548C83.0019 7.58108 81.4062 7.33652 78.9362 7.89288C77.4627 8.22303 75.9587 8.49204 74.5342 9.03618C73.7149 9.3541 72.8468 9.5314 72.0459 9.90435C70.3829 10.693 70.7558 10.2895 68.7383 11.3839C66.5739 12.5517 63.1807 14.4408 61.3221 16.0855C61.0103 16.3606 60.6129 16.5012 60.3133 16.7824C59.4146 17.6201 58.3691 18.2865 57.501 19.1607C57.1953 19.4603 54.2484 21.4657 53.5147 22.7924C53.368 23.0614 52.1513 24.3881 51.5032 25.6537C51.3015 26.0572 51.0386 26.4301 50.8002 26.8092C50.7329 26.907 50.6779 27.0354 50.5006 27.011C50.0726 25.9777 49.9626 25.8554 50.1154 25.6476C50.7818 24.7611 50.1093 23.8929 50.7512 23.2876C50.8919 23.1531 50.953 22.5601 50.5495 22.2482C49.9748 21.8019 49.5957 22.0343 49.2717 22.1076C49.1555 22.1382 49.0638 22.0709 49.0638 21.9548C49.0699 21.3801 48.9843 20.8115 49.0516 20.2368C49.449 17.0026 49.504 15.6881 49.8525 14.6365C50.1276 13.805 49.9748 13.7255 50.6656 10.5952C51.1242 8.51038 51.9434 6.42556 53.0562 4.60362C53.6798 3.57649 54.8353 1.70565 56.0214 1.26545C56.4249 1.11872 57.0057 1.43664 57.3175 1.24099C57.8861 0.886389 57.5376 0.12827 56.9813 0.0182199C56.1498 -0.146855 55.5262 1.03312 54.9331 1.46109C54.12 2.04191 53.5025 2.82449 52.9706 3.66209C52.9645 3.66209 52.9645 3.6682 52.9645 3.6682C50.2132 7.96625 49.3145 13.6155 48.6114 18.7511C48.2568 21.3923 48.6725 21.8631 48.4219 22.1382C47.2419 22.1382 47.8961 22.505 47.0646 18.0725C46.924 17.3266 46.71 16.599 46.6122 15.8409C46.1047 12.0136 45.585 10.8642 45.316 9.89823C43.812 4.42632 42.253 3.54592 41.1036 2.59827C40.4677 2.06637 39.7524 1.68119 38.9759 1.39384C38.6336 1.26545 38.2912 1.25934 37.9488 1.25934C37.6981 1.26545 37.5942 1.38773 37.5575 1.65062C37.5392 1.82181 37.5575 1.97466 37.6859 2.10305C37.906 2.32315 38.499 3.09961 39.0126 2.32315C39.1777 2.07859 39.1777 2.07859 39.4406 2.20087C40.2598 2.5677 40.9324 3.13629 41.5927 3.72322C42.5892 4.62196 43.219 5.77748 43.757 6.98192C44.6802 9.06063 45.6278 12.9246 45.9335 15.1745C46.2453 17.4611 46.5449 17.2349 47.0951 22.2605C46.6977 22.2972 46.4899 21.8447 45.6156 22.4683C45.4199 22.609 45.3405 22.8168 45.3344 23.0553C45.3099 23.8379 45.8846 23.6422 45.7318 24.4064C45.5972 25.0851 46.013 25.4519 46.4349 25.9166C46.0864 26.2956 46.0008 26.7909 45.7501 27.2127C45.2916 27.0048 45.7623 26.907 43.9404 25.2807C38.9148 20.7809 38.6702 20.7626 34.7451 18.5371C32.911 17.4978 27.0294 15.4802 26.9194 15.4496C23.2694 14.4959 15.1013 13.1997 13.4077 13.2609C9.22583 13.3954 9.46427 13.3159 8.55331 13.4382C7.96637 13.5176 7.37944 13.6155 6.7864 13.6521C6.23615 13.6888 5.69813 13.8661 5.14177 13.8417C5.08674 13.8417 3.14253 14.3552 2.21322 15.0828C0.972107 16.0427 0 17.2043 0 18.9834C0 19.4175 0.0672514 21.5696 0.195644 21.9854C1.1005 24.8711 1.46122 25.7332 1.4551 26.9131C1.44287 28.8818 1.90142 30.3247 2.58005 31.7186C3.80894 34.2559 4.07184 33.7668 4.4509 34.6716C5.36186 36.8604 5.05617 36.4019 5.22736 36.8054C5.95491 38.4928 7.141 40.7916 8.76729 41.6231C10.7665 42.6502 10.9989 43.714 12.7658 45.4871C14.4104 47.1317 16.0611 47.2295 16.2507 47.2907C16.4891 47.3701 16.2812 47.5964 16.0978 47.8348C15.1685 49.0576 14.1047 50.9284 14.1414 52.3896C14.1536 52.9643 14.1536 53.5513 14.0741 54.1137C13.9885 54.7618 14.1414 55.3793 14.1903 56.009C14.6366 57.0667 14.6733 58.4179 14.8628 58.6869C15.089 59.0048 15.2235 59.3778 15.4253 59.7079C15.7677 60.2521 16 60.839 16.2201 61.4382C16.8376 63.095 17.987 63.9204 18.5923 64.6968C18.9713 65.1798 19.5338 65.4978 19.8151 66.0664C19.8212 66.0847 19.8395 66.103 19.8579 66.1091C20.2369 66.2498 20.4692 66.5921 20.8177 66.7694C21.6003 67.173 23.9603 68.5608 24.5044 68.7259C25.2319 68.946 25.9656 69.1477 26.6748 69.4045C27.4513 69.6858 28.2583 69.8264 29.0531 70.0404C30.4104 70.4072 32.2812 69.5635 33.4306 68.6647C33.6569 68.4874 35.9129 66.3843 36.995 63.9999C38.3462 61.0224 37.4597 63.2845 39.1471 58.9743C39.1471 58.9743 40.1131 56.6693 40.2598 55.9846C40.3332 55.6239 41.018 53.7102 41.2625 52.4324C41.3603 51.9372 41.5071 51.4481 41.6355 50.9529C41.9106 49.8891 42.1918 48.8252 42.4792 47.7614C42.8338 46.4347 43.1945 45.1141 43.5674 43.7935C43.9282 42.5218 44.295 41.2502 44.6802 39.9907C44.9614 39.0858 45.2426 38.1749 45.6034 37.2945C45.6584 37.1661 45.7134 37.0316 45.7746 36.9093C45.8051 36.8421 45.9519 36.5302 46.013 36.6953C46.0497 36.787 45.9763 36.9277 45.9519 37.0194C45.0225 41.0484 45.5789 42.1672 45.6706 43.659C45.7868 45.6155 46.123 45.7133 46.4287 47.1317C46.5571 47.7492 47.0034 48.5073 47.4008 49.3144C47.841 50.1825 48.6664 50.1458 49.0088 49.7851C49.449 49.3266 49.8586 48.8375 50.0359 48.2016C50.2377 47.4496 50.4761 46.7098 50.5495 45.9273C50.739 43.8547 50.9102 40.2964 50.5128 38.8168C50.2621 37.8936 50.1276 36.9277 49.7486 36.035C49.6935 35.9005 49.7302 35.8149 49.7547 35.7721C50.1888 36.0228 52.3592 40.5654 54.065 45.6766C54.5052 46.9972 54.6641 47.364 56.0031 50.7267C56.1926 51.1913 56.1009 51.0751 57.4154 53.5268C59.2495 56.9383 59.4574 57.5375 61.2488 59.6712C63.3642 62.2024 67.491 65.9135 70.0894 66.9101C70.8353 67.1974 73.1525 67.6621 73.8984 67.5031C76.2705 66.9895 75.9159 67.0262 78.5755 64.4706C80.2507 62.8566 81.2717 61.0224 83.2587 57.3602C83.974 56.0518 84.3103 54.1565 84.4142 52.6097C84.5304 50.8367 84.2369 49.6323 83.6989 47.8226C83.0203 45.5421 82.5556 45.9212 82.6718 45.536C83.9434 45.108 85.1418 44.5272 86.603 42.6686C88.5533 40.1863 87.7218 40.0763 90.2896 36.2918C90.7421 35.6193 91.4696 33.6506 91.6102 33.1921C92.2889 31.0217 91.8242 32.3484 92.4478 29.4198C93.1693 26.0388 95.0951 25.562 94.4654 19.1485C94.4226 18.6778 94.765 17.6567 94.7467 16.0304Z" fill="black"/>
</g>
<path d="M36.1146 26.6442C36.2675 26.4792 36.1269 26.4364 35.9985 26.4425C35.9618 26.4425 35.9251 26.4486 35.9007 26.4608C35.6806 26.522 35.4605 26.7849 35.2465 26.8888C34.7023 27.1517 33.9687 27.867 33.7364 28.2277C33.5896 28.4601 33.5591 28.7107 33.6569 28.7168C33.8586 28.7352 33.9259 28.5518 34.0176 28.4295C34.8796 27.2923 35.7234 27.0783 36.1146 26.6442Z" fill="black"/>
<path d="M26.5403 32.8681C26.363 33.0454 25.9656 33.559 25.9167 33.8341C25.8861 33.9808 26.0818 34.1215 26.1796 33.9442C26.6932 33.076 27.4207 32.5319 27.7081 32.1039C28.723 30.6243 31.1013 28.0076 32.966 26.7909C33.1005 26.7053 33.2166 26.5831 33.3389 26.473C33.4184 26.4058 33.3756 25.9595 32.6419 26.4852C29.2426 28.9491 27.5246 31.8777 26.5403 32.8681Z" fill="black"/>
<path d="M28.8575 28.7107C28.8086 28.778 28.7658 28.9308 28.8391 28.9797C28.9125 29.0348 28.9492 28.992 29.6462 28.3806C31.3825 26.8582 32.8498 26.1062 33.0822 25.666C33.1005 25.5621 32.9599 25.4215 32.8926 25.4459C32.752 25.4887 32.7948 25.4337 31.4681 26.3997C29.8296 27.5797 29.53 27.7509 28.8575 28.7107Z" fill="black"/>
<path d="M19.1486 40.5472C19.1975 40.4922 19.2709 40.4371 19.2281 40.3393C19.008 40.2415 17.7669 41.7088 17.0577 42.4486C15.4803 44.0932 15.0707 44.1972 14.496 44.6496C14.3003 44.8024 14.5143 45.0592 14.6916 44.9308C16.5197 43.6041 16.7642 43.3596 19.1486 40.5472Z" fill="black"/>
<path d="M21.1846 40.1559C21.4719 39.9847 21.692 39.7524 21.8877 39.4895C24.5411 35.9862 24.5778 36.0351 24.6389 35.6744C24.376 35.167 22.2729 38.7252 21.0134 39.8624C20.8606 40.003 21.0318 40.2415 21.1846 40.1559Z" fill="black"/>
<path d="M13.1632 39.355C14.6244 37.9488 15.0462 37.6798 14.7039 37.6737C14.3615 37.6675 13.0348 39.037 12.8086 39.2938C12.3806 39.7646 11.9526 40.2292 11.3963 40.5594C11.0417 40.7673 10.736 41.0485 10.3386 41.183C10.2652 41.2075 10.2041 41.2931 10.2468 41.3787C10.2713 41.4276 10.3324 41.4581 10.3569 41.4765C10.7237 41.5376 11.0111 41.1219 11.5002 40.8834C12.2828 40.5044 12.833 39.679 13.1632 39.355Z" fill="black"/>
<path d="M24.2782 27.7875C27.8242 24.8529 25.3359 27.0049 27.6347 24.8345C27.7875 24.6878 27.5674 24.4921 27.4146 24.5839C27.2556 24.6817 24.3821 27.225 23.679 28.1238C23.6179 28.1972 23.5445 28.2827 23.6301 28.4295C23.6423 28.4173 24.2598 27.8059 24.2782 27.7875Z" fill="black"/>
<path d="M19.2587 41.9656C19.2465 41.9473 19.1853 41.9534 19.1609 41.9656C17.9809 42.8827 17.4123 44.1116 16.1284 44.8086C15.9633 44.9003 15.2235 45.3282 15.0707 45.53C15.0462 45.5667 15.0646 45.6462 15.089 45.6951C15.1074 45.7379 15.2358 45.7807 15.303 45.744C16.1406 45.2732 16.9843 44.8085 17.614 44.0443C18.898 42.4792 19.3932 42.1429 19.2587 41.9656Z" fill="black"/>
<path d="M17.235 41.3114C17.3572 41.1647 17.1922 41.0852 17.0821 41.1891C15.9083 42.2407 16.7092 41.6905 14.6121 43.4879C13.6522 44.3133 13.4016 44.1727 13.4627 44.4906C13.5605 44.9553 15.6331 43.274 17.235 41.3114Z" fill="black"/>
<path d="M16.0489 40.9568C15.7921 40.6634 14.8323 42.5648 13.1876 43.4024C13.0225 43.488 12.8452 43.5919 12.9125 43.7509C12.9492 43.8303 13.0409 43.8548 13.1204 43.8181C13.4383 43.6836 13.7562 43.5247 14.0191 43.2984C15.0034 42.4547 15.9083 41.2809 16.0489 40.9568Z" fill="black"/>
<path d="M26.6626 26.5831C26.9622 26.5831 27.5552 25.8739 28.6679 25.1035C28.8391 24.9874 28.7168 24.8039 28.5151 24.7978C28.1605 24.7856 27.005 25.9533 26.6809 26.2774C26.4975 26.4547 26.6381 26.5464 26.6626 26.5831Z" fill="black"/>
<path d="M14.8445 40.8101C14.8811 40.7612 14.765 40.7 14.7344 40.7184C14.1658 40.969 13.5055 42.3936 12.5334 42.791C12.5028 42.8093 12.4845 42.8582 12.4662 42.8888C12.4295 42.9438 12.4906 43.0722 12.6374 43.0906C13.371 42.9377 14.227 41.5927 14.8445 40.8101Z" fill="black"/>
<path d="M29.8968 26.2224C29.854 26.2713 29.7256 26.4486 29.7929 26.5464C29.8601 26.6381 30.068 26.5525 30.123 26.5097C32.0428 25.1097 31.6209 25.5315 31.7554 25.2808C31.7249 25.183 31.6821 25.1097 31.5903 25.0974C31.1746 25.0607 30.1964 25.9167 29.8968 26.2224Z" fill="black"/>
<path d="M28.3684 26.5036C28.564 26.3752 28.778 26.259 28.9614 26.1062C29.3038 25.8127 29.6217 25.4948 30.0313 25.2992C30.2576 25.1891 30.1292 24.8773 29.8479 24.9568C29.3405 25.0974 28.295 26.0817 28.2828 26.4058C28.2828 26.4302 28.3256 26.4547 28.3684 26.5036Z" fill="black"/>
<path d="M12.9247 40.5839C12.9431 40.5594 12.937 40.5105 12.9431 40.4738C12.9186 40.4249 12.8819 40.4066 12.8392 40.431C12.7413 40.4922 12.6252 40.5533 12.5457 40.6389C11.7876 41.3848 11.2985 41.5193 11.0967 41.7455C10.9866 41.8678 11.115 42.0756 11.2618 41.9962C11.9282 41.6538 12.4784 41.183 12.9247 40.5839Z" fill="black"/>
<path d="M13.3343 41.3542C13.3527 41.3236 13.3404 41.2747 13.3404 41.2319C13.3038 41.2197 13.2549 41.1769 13.2365 41.183C13.1509 41.2319 13.0592 41.2869 12.9981 41.3603C12.3806 42.1368 11.9281 42.1429 11.8364 42.2224C11.6897 42.3508 11.8426 42.5464 11.9526 42.5097C12.5823 42.3263 12.9797 41.8678 13.3343 41.3542Z" fill="black"/>
<path d="M36.6526 61.0409C36.0168 62.4715 35.8089 62.3737 35.7539 62.7833C35.7539 62.8139 35.815 62.8628 35.8395 62.8384C37.6064 61.3405 40.7428 50.311 40.8896 49.5223C40.5288 48.1039 39.9969 53.5453 36.6526 61.0409Z" fill="black"/>
<path d="M34.47 64.4402C34.4333 64.4402 34.3783 64.4402 34.366 64.4585C33.1433 66.6351 33.8341 65.8097 31.9083 67.864C31.462 68.3347 31.4008 68.2614 31.2174 68.4631C31.1379 68.5426 31.2969 68.6771 31.3458 68.6649C31.7554 68.5793 31.9878 68.2186 32.7826 67.4543C33.9381 66.3416 34.684 64.4402 34.47 64.4402Z" fill="black"/>
<mask id="mask1_70_3" style="mask-type:luminance" maskUnits="userSpaceOnUse" x="28" y="65" width="4" height="6">
<path d="M28.8147 65.5835H31.945V70.1811H28.8147V65.5835Z" fill="white"/>
</mask>
<g mask="url(#mask1_70_3)">
<path d="M31.7065 66.6901C31.4069 66.7512 30.8261 68.0229 29.8785 68.7994C29.8235 68.8483 29.8112 68.9889 29.8357 69.0195C29.8724 69.0928 29.958 69.1418 30.0374 69.1173C30.4593 68.9889 31.9694 67.0325 31.7065 66.6901Z" fill="black"/>
</g>
<path d="M42.901 37.6859C43.0355 37.423 42.7726 37.3313 42.6625 37.5453C42.2223 38.4195 41.7944 39.5567 41.5315 40.5044C41.5254 40.5288 41.5682 40.5655 41.5865 40.5961C41.9167 40.4432 42.1306 39.1532 42.901 37.6859Z" fill="black"/>
<mask id="mask2_70_3" style="mask-type:luminance" maskUnits="userSpaceOnUse" x="27" y="65" width="4" height="6">
<path d="M27.2495 65.5835H30.3798V70.1811H27.2495V65.5835Z" fill="white"/>
</mask>
<g mask="url(#mask2_70_3)">
<path d="M29.0103 67.1364C28.0381 68.3531 28.0137 68.4203 27.9159 68.671C27.8975 68.7199 27.9831 68.8972 28.0993 68.8422C28.4845 68.6404 29.2059 67.5155 29.4688 66.8063C29.2426 66.8796 29.1203 67.0019 29.0103 67.1364Z" fill="black"/>
</g>
<mask id="mask3_70_3" style="mask-type:luminance" maskUnits="userSpaceOnUse" x="28" y="67" width="3" height="4">
<path d="M28.8147 67.1486H30.3798V70.1811H28.8147V67.1486Z" fill="white"/>
</mask>
<g mask="url(#mask3_70_3)">
<path d="M30.0007 67.6683C29.9824 67.65 29.9151 67.65 29.8968 67.6683C28.6373 68.8422 28.8941 68.8727 28.998 69.0195C29.0531 69.0133 29.1081 69.0256 29.1264 69.0011C29.4382 68.7138 30.1841 67.8639 30.0007 67.6683Z" fill="black"/>
</g>
<path d="M40.9629 39.9236C41.2258 39.4528 41.4154 39.3611 41.3236 39.0799C41.3236 39.0676 41.2931 39.0493 41.2808 39.0493C40.9874 39.1593 40.9813 39.4528 40.8712 39.679C40.8529 39.7279 40.8712 39.7952 40.8712 39.8502L40.9629 39.9236Z" fill="black"/>
<path d="M33.4857 50.525C33.4796 50.5433 33.5285 50.58 33.5468 50.6045C34.1399 50.3049 35.6745 46.0252 35.6806 46.0252C36.6771 43.5796 37.423 42.901 37.2763 42.6198C37.0623 42.2162 35.381 45.854 34.9958 47.0401C34.6596 48.0672 33.6385 49.9931 33.4857 50.525Z" fill="black"/>
<path d="M28.0076 64.2568C27.4574 64.9232 27.219 66.2132 25.77 67.6255C25.4826 67.9068 25.8067 68.1269 25.9412 68.0351C26.2652 67.8089 27.115 66.739 27.2495 66.4333C27.4329 66.0115 28.1116 64.5136 28.0076 64.2568Z" fill="black"/>
<path d="M33.3756 48.6603C33.4918 48.4646 34.1031 47.303 34.3171 46.7528C34.6045 46.0069 35.008 45.316 35.3504 44.6007C35.4115 44.4662 35.5949 44.3561 35.491 44.1788C35.3809 44.0015 35.063 44.4845 34.9713 44.674C32.9843 48.8559 33.1066 48.5135 33.3756 48.6603Z" fill="black"/>
<path d="M26.1918 65.29C26.0023 65.345 25.9473 65.4917 25.8617 65.6018C25.8066 65.6752 24.804 66.9713 24.7489 67.0752C24.6328 67.2648 24.9079 67.4726 25.0363 67.277C26.2835 65.3817 26.2163 65.4856 26.1918 65.29Z" fill="black"/>
<path d="M34.1399 45.1448C33.9014 44.9247 33.9259 45.0042 33.0883 46.7589C33.0516 46.8322 33.0333 46.9117 33.021 46.9912C33.021 47.0218 33.0577 47.0584 33.0822 47.0829C33.2289 47.2419 34.091 45.4138 34.1399 45.1448Z" fill="black"/>
<path d="M24.8406 65.3267C24.804 65.3267 24.7489 65.3206 24.7367 65.345C23.8808 66.5189 23.9297 66.1765 23.8808 66.4394C23.8685 66.5006 23.9786 66.6167 24.0336 66.6045C24.4555 66.47 24.9874 65.3389 24.8406 65.3267Z" fill="black"/>
<path d="M22.2178 64.324C22.1628 64.3179 22.0038 64.483 21.961 64.5196C21.8388 64.6236 21.7165 64.7275 21.6064 64.8437C21.5147 64.9476 21.3313 65.1249 21.3435 65.2839C21.3558 65.4123 21.5025 65.5407 21.637 65.4367C21.851 65.2655 21.9427 65.021 22.065 64.7887C22.1078 64.7153 22.3218 64.4952 22.3034 64.3851C22.2973 64.3546 22.2728 64.3301 22.2178 64.324Z" fill="black"/>
<path d="M22.7436 66.1582C22.8475 66.0604 22.9759 65.9748 23.037 65.8586C23.1838 65.5774 23.3733 65.3145 23.3855 64.9293C22.5785 65.8281 22.5541 65.8281 22.5235 65.987C22.5051 66.0848 22.6396 66.256 22.7436 66.1582Z" fill="black"/>
<path d="M32.8193 45.3527C32.7948 45.3282 32.7275 45.3221 32.7092 45.3405C32.428 45.5973 32.2568 45.9029 32.2201 46.2759L32.3363 46.337C32.8804 45.4261 32.911 45.4199 32.8193 45.3527Z" fill="black"/>
<path d="M20.2369 29.2977C20.6832 28.9859 19.436 29.9213 23.251 26.2224C24.2415 25.2564 24.2598 25.3053 25.3664 24.4494C25.6538 24.2232 25.4092 23.9969 25.1647 24.1253C23.8747 24.7979 20.5365 28.3317 20.5304 28.3439C20.2002 28.7413 19.8456 29.1143 19.4604 29.4627C19.222 29.6706 19.0325 29.8601 18.8735 30.0864C18.7574 30.2514 18.6595 30.4348 18.5617 30.6611C18.6473 30.6672 18.7146 30.5999 18.7757 30.5449C19.2403 30.068 19.6805 29.6584 20.2369 29.2977Z" fill="black"/>
<path d="M14.7711 34.6656C14.8322 34.5923 14.8995 34.5128 14.8689 34.3844C14.2086 34.4516 12.1116 37.9488 8.93847 39.8135C8.54107 40.0458 8.79173 40.2965 8.94458 40.2354C10.8338 39.4344 13.5728 36.188 14.7711 34.6656Z" fill="black"/>
<path d="M10.9561 33.1372C10.9927 33.0577 11.2312 32.7275 11.3229 32.7764C11.5247 32.8926 11.7692 32.9415 11.9221 33.1433C12.0199 33.2778 11.9649 33.4795 11.8059 33.5529C11.6653 33.6202 11.5063 33.6507 11.3596 33.6935C11.115 33.7057 10.8582 33.3573 10.9561 33.1372ZM10.4853 33.9136C10.7726 33.9381 10.9683 34.2438 11.3351 34.1582C11.7814 34.2132 12.0932 33.9442 12.3561 33.5712C12.6068 33.2105 12.4784 32.6052 12.1666 32.5074C11.488 32.2934 11.0294 32.055 10.4364 32.9904C10.2591 33.2655 10.363 33.5407 10.4119 33.8219C10.418 33.8525 10.4547 33.9075 10.4853 33.9136Z" fill="black"/>
<path d="M9.128 31.6882C9.33588 31.5048 9.49484 31.2602 9.67214 31.0462C9.53763 30.6977 8.84677 31.517 7.94191 32.2017C5.60642 33.9503 5.07451 33.7363 5.25181 34.146C5.423 34.525 5.91211 33.9809 6.658 33.5896C7.59342 33.0944 8.34543 32.3668 9.128 31.6882Z" fill="black"/>
<path d="M11.7631 36.7444C11.8426 36.6526 11.9282 36.5609 11.9343 36.4264C11.9159 36.3592 11.8915 36.2736 11.8242 36.3347C11.6836 36.4509 11.5247 36.5487 11.4085 36.6893C10.6443 37.6492 9.825 38.1933 8.23539 39.465C7.98472 39.6668 8.18648 39.9603 8.43715 39.7952C9.02408 39.41 9.21973 39.1899 9.94728 38.6458C10.6565 38.1078 11.2006 37.4169 11.7631 36.7444Z" fill="black"/>
<path d="M10.5892 36.2797C10.2896 36.3469 9.58043 37.4413 7.99693 38.6947C7.87466 38.7986 7.69735 38.8597 7.75238 39.0737C7.91745 39.6545 11.2495 36.1391 10.5892 36.2797Z" fill="black"/>
<path d="M21.4903 26.2224C21.3863 26.3202 21.3069 26.4364 21.2213 26.5525C21.2029 26.577 21.2029 26.7971 21.4964 26.5464C23.1899 25.1158 22.9821 25.3848 23.245 25.0974C24.0642 24.2048 23.9053 24.5839 24.107 24.2415C23.997 24.1375 23.9481 24.0397 23.7341 24.1437C23.0493 24.5044 23.2388 24.6144 21.4903 26.2224Z" fill="black"/>
<path d="M20.9706 25.5377C21.05 25.6233 21.1662 25.4398 21.5881 25.1219C22.9148 24.1009 22.9942 24.1192 22.9637 23.9725C22.9453 23.8991 22.8964 23.8563 22.8353 23.8625C22.4134 23.8991 20.7749 25.3176 20.9706 25.5377Z" fill="black"/>
<path d="M7.70958 33.4734C7.48948 33.4734 7.6729 33.3512 5.83262 34.6717C5.71646 34.7512 5.74703 35.0019 5.93656 35.008C6.71913 34.5556 7.04317 34.1582 7.69735 33.663C7.75238 33.6202 7.8074 33.4734 7.70958 33.4734Z" fill="black"/>
<path d="M7.59955 34.5617C7.47727 34.4333 7.61789 34.3355 6.24838 35.3137C6.10165 35.4238 6.30341 35.7478 6.49294 35.5888C7.7524 34.5372 7.55675 34.6901 7.59955 34.5617Z" fill="black"/>
<path d="M8.18648 36.5732C8.11922 36.4448 8.05197 36.5181 6.85977 37.1845C6.67023 37.2885 6.73749 37.5758 6.86588 37.5575C7.11043 37.5269 8.2843 36.781 8.18648 36.5732Z" fill="black"/>
<path d="M8.5044 37.5269C8.5044 37.5086 8.5044 37.4841 8.49217 37.478C8.45549 37.4658 8.40658 37.4352 8.38212 37.4536C8.33932 37.4841 7.36722 38.1261 7.33665 38.1811C7.24494 38.3645 7.41613 38.499 7.52618 38.4195C7.82576 38.2239 8.36378 37.8571 8.5044 37.5269Z" fill="black"/>
<path d="M7.52004 35.7172C7.5017 35.705 7.47724 35.6866 7.46501 35.6928C7.12264 35.8639 6.78026 36.0351 6.444 36.2186C6.37063 36.2552 6.38897 36.5548 6.59073 36.4753C7.20823 36.243 7.6362 35.8028 7.52004 35.7172Z" fill="black"/>
<path d="M20.2736 24.0214C20.457 23.893 20.6343 23.7523 20.8116 23.6117C20.9828 23.4711 20.8116 23.2999 20.726 23.3244C20.4509 23.3855 20.2736 23.5873 20.0841 23.7707C19.7295 24.1253 19.9496 24.2415 20.2736 24.0214Z" fill="black"/>
<path d="M20.7933 24.5655C21.7165 23.8685 21.8693 23.8196 21.7104 23.6668C21.637 23.5995 21.5575 23.6117 21.4903 23.6607C20.4265 24.4249 20.726 24.6144 20.7933 24.5655Z" fill="black"/>
<path d="M19.222 23.7463C19.4115 23.7585 19.8395 23.41 20.0168 23.2205C20.1268 23.0982 19.9189 22.9698 19.8395 23.0126C19.5582 23.1471 18.9468 23.6056 19.222 23.7463Z" fill="black"/>
<path d="M21.8143 42.5831C21.8877 42.5158 21.961 42.4364 21.961 42.3202C21.9305 42.3019 21.8999 42.2591 21.8693 42.2591C21.7226 42.2774 21.6064 42.3508 21.4964 42.4486C19.864 43.7814 19.8151 44.5518 18.4945 45.585C18.1399 45.8601 17.8953 45.9763 18.0176 46.1414C18.1399 46.3064 18.3416 46.2086 18.5006 46.0863C19.8823 45.0042 19.4299 45.2121 20.7444 43.757C21.099 43.3657 21.4108 42.9316 21.8143 42.5831Z" fill="black"/>
<path d="M23.4406 41.6721C23.3305 41.5988 22.7069 42.1062 22.1689 42.8277C21.7287 43.4146 21.2946 44.0076 20.7321 44.4967C20.4264 44.7596 20.1941 45.102 19.8578 45.3466C19.6744 45.4811 19.7845 45.9824 20.5304 45.2304C20.9278 44.833 21.637 44.1788 21.7898 43.9771C23.679 41.5254 23.4528 41.8005 23.4406 41.6721Z" fill="black"/>
<path d="M23.783 42.4425C23.4589 42.5647 22.9026 43.2556 21.8999 44.4111C21.7043 44.6374 21.8938 44.9369 22.1873 44.6007C23.3917 43.1823 23.5568 42.9866 23.7891 42.6809C23.9175 42.5036 23.7891 42.4364 23.783 42.4425Z" fill="black"/>
<path d="M39.0492 27.8181C38.7741 27.8242 37.8815 28.6924 37.4291 29.7379C37.3802 29.8418 37.4535 29.9335 37.4658 29.9641C37.8387 29.8907 37.9488 29.1509 39.0492 28.1421C39.2327 27.9771 39.1654 27.8181 39.0492 27.8181Z" fill="black"/>
<path d="M36.7444 26.846C36.5793 26.5342 35.2037 27.5307 35.1303 28.0565C35.1119 28.1788 35.3198 28.2033 35.4054 28.1116C36.3959 27.0049 36.8483 27.0416 36.7444 26.846Z" fill="black"/>
<path d="M37.3802 27.2312C37.3557 27.2006 37.3374 27.1456 37.3068 27.1394C37.2579 27.1272 37.1784 27.115 37.1417 27.1456C36.2063 27.8059 36.3958 28.2705 36.567 28.1177C36.8482 27.8792 37.1295 27.6408 37.3557 27.3473C37.3802 27.3167 37.374 27.2678 37.3802 27.2312Z" fill="black"/>
<path d="M38.0283 27.7142C38.0527 27.6714 37.9488 27.4941 37.8326 27.5736C37.5636 27.757 37.368 28.0076 37.2641 28.3194C37.2579 28.3378 37.3007 28.3745 37.3191 28.405C37.4964 28.4173 37.9243 27.8487 38.0283 27.7142Z" fill="black"/>
<path d="M24.9385 42.3324C24.8285 42.2774 24.7306 42.3691 24.1804 42.8582C24.1559 42.8766 24.1498 42.9255 24.1437 42.9683C24.1254 43.0416 24.1804 43.0722 24.2599 43.1028C24.2966 43.0906 24.3638 43.0844 24.4005 43.0478C24.9018 42.5587 25.0791 42.3997 24.9385 42.3324Z" fill="black"/>
<path d="M38.982 28.7596C38.927 28.8758 39.0982 28.888 39.1226 28.8697C39.7768 28.3928 39.6607 28.4539 39.6974 28.35C39.6179 28.1482 39.2021 28.295 38.982 28.7596Z" fill="black"/>
<path d="M19.8945 15.8471C20.1819 15.9633 20.5181 15.8471 21.6553 16.3485C22.5051 16.7214 23.251 16.5625 25.2075 17.3022C26.3569 17.7363 27.5307 18.097 28.6435 18.6167C28.6985 18.6412 28.7657 18.6351 28.9064 18.6534C28.4967 18.1826 28.4295 18.1154 28.0565 17.9686C22.2789 15.7371 22.9025 16.5747 21.5636 15.945C21.1418 15.7493 20.3225 15.4803 19.9067 15.7065C19.8762 15.7187 19.8395 15.8288 19.8945 15.8471Z" fill="black"/>
<path d="M27.3229 22.0527C27.6286 22.1811 27.922 22.2422 28.2277 22.285C32.6542 22.8353 34.1949 23.8746 34.201 23.4283C34.2071 23.2388 33.9197 23.1532 33.7424 23.0982C31.0218 22.3278 30.4593 22.0955 27.6286 21.8937C27.5246 21.8876 27.4207 21.8876 27.3229 22.0527Z" fill="black"/>
<path d="M31.6331 21.4964C31.2724 21.2579 30.8383 21.1968 30.4409 21.0562C30.282 21.0012 30.1291 20.9706 29.8907 21.0562C30.3615 21.2702 30.765 21.4536 31.1685 21.6309C31.6759 21.8632 31.7738 21.5881 31.6331 21.4964Z" fill="black"/>
<path d="M22.9882 21.3863C22.9087 21.3985 22.8475 21.4107 22.7864 21.4169C22.6641 21.4413 22.7681 21.5819 22.7986 21.588C23.1288 21.6614 23.7463 21.8265 23.6729 21.6064C23.6301 21.4597 23.5078 21.4719 22.9882 21.3863Z" fill="black"/>
<path d="M6.96981 25.7454C6.89033 25.5192 7.26328 25.5498 7.41613 25.3419C7.56286 25.1341 7.71571 25.1402 7.92969 25.2197C8.35155 25.3786 8.05808 25.4887 8.13756 25.6721C8.20482 25.8188 8.30264 25.9594 8.17425 26.1245C8.02751 26.3018 7.74016 26.4485 7.54452 26.4424C7.31219 26.4363 7.13489 26.2896 6.93925 26.1856C6.78028 26.1062 7.03707 25.935 6.96981 25.7454ZM7.43447 26.9071C8.22316 26.7298 8.57776 26.5647 8.80398 25.7821C8.86511 25.5681 8.82843 25.3297 8.74284 25.1218C8.66947 24.9323 8.47994 24.8834 8.29652 24.8345C8.20482 24.8039 8.11922 24.7428 8.0214 24.7061C7.624 24.5349 7.01261 24.6755 6.75583 25.0362C6.40123 25.5192 6.22392 25.4092 6.22392 25.8066C6.26672 26.0695 6.23004 26.3446 6.45014 26.5525C6.73137 26.8093 7.03095 26.9988 7.43447 26.9071Z" fill="black"/>
<path d="M4.40198 31.8349C5.39242 31.4008 7.11654 30.5999 7.94802 29.9029C8.58386 29.3649 9.25639 28.8697 9.76996 28.191C8.13144 29.1264 6.7925 30.5326 4.26747 31.4925C3.90676 31.6331 3.99846 32.0122 4.40198 31.8349Z" fill="black"/>
<path d="M4.90331 27.6103C3.51547 28.1911 3.64386 27.9771 2.77569 28.1666C2.53725 28.2216 2.5189 28.5701 2.79403 28.564C4.34084 28.5151 4.71378 28.1116 5.61864 27.4696C5.40465 27.4513 5.44133 27.384 4.90331 27.6103Z" fill="black"/>
<path d="M15.6637 23.6607C15.7188 23.7401 15.9755 23.734 16.3546 23.3978C17.9381 21.9793 17.7914 22.4562 18.0848 22.0649C18.0359 22.016 18.0053 21.961 17.9564 21.9304C17.5713 21.7165 15.5415 23.465 15.6637 23.6607Z" fill="black"/>
<path d="M4.65265 24.4615C4.6771 24.431 4.67099 24.3209 4.60374 24.3209C4.48757 24.3209 4.35918 24.3026 4.24302 24.3331C2.87351 24.645 2.10317 24.4187 2.11539 24.7978C2.12151 25.0852 2.49445 24.9812 2.86129 24.969C3.3076 24.9445 4.42644 24.8223 4.65265 24.4615Z" fill="black"/>
<path d="M6.04661 29.6828C5.96102 29.6095 5.88765 29.6461 5.80817 29.6767C5.30684 29.8663 3.94344 30.5204 3.55827 30.8995C3.50324 30.9545 3.52159 31.1868 3.705 31.089C6.02827 29.8173 5.97936 29.8663 6.04661 29.6828Z" fill="black"/>
<path d="M4.82383 28.5885C4.75046 28.5396 4.66487 28.5518 4.5915 28.5763C3.23422 29.0654 3.19754 29.0776 2.99578 29.2121C2.81848 29.3344 2.91019 29.6401 3.14863 29.53C4.74435 28.7719 4.8116 28.7658 4.82383 28.5885Z" fill="black"/>
<path d="M3.17918 26.6381C3.60715 26.6748 4.48144 26.0145 2.65339 26.2346C2.57391 26.2468 2.4822 26.4119 2.51277 26.4792C2.61671 26.7054 2.72675 26.6014 3.17918 26.6381Z" fill="black"/>
<path d="M5.1112 29.3037C5.09286 29.2793 5.03172 29.2548 5.00726 29.2671C3.30149 29.9946 3.41154 29.9396 3.37486 30.0435C3.33206 30.1841 3.40543 30.1841 3.47879 30.2331C3.68055 30.1536 5.23959 29.4749 5.1112 29.3037Z" fill="black"/>
<path d="M16.0184 22.3706C16.0489 22.5173 16.8132 22.0832 17.2106 21.7653C17.3634 21.6492 17.1983 21.4535 17.07 21.5085C16.6787 21.6797 16.3302 21.9182 16.0245 22.2116C15.9939 22.2361 16.0061 22.3217 16.0184 22.3706Z" fill="black"/>
<path d="M3.73559 25.5376C3.76005 25.5254 3.77227 25.4765 3.77839 25.4398C3.79673 25.3542 3.71114 25.3603 3.52772 25.3359C2.51893 25.4643 2.43945 25.4276 2.44556 25.6477C2.45779 26.0451 3.38099 25.77 3.73559 25.5376Z" fill="black"/>
<path d="M3.96792 27.2434C3.98014 27.2373 3.97403 27.1578 3.9618 27.1456C3.82118 27.0661 3.88844 27.0722 2.75126 27.2067C2.70234 27.2128 2.45168 27.3962 2.74514 27.5552C2.77571 27.5735 2.82462 27.5674 2.80017 27.5613C3.26482 27.5857 3.61943 27.4084 3.96792 27.2434Z" fill="black"/>
<path d="M15.8349 21.1601C15.7983 21.2151 15.8655 21.2457 15.9267 21.2885C16.1529 21.2212 16.3852 21.1478 16.5564 20.9583C16.5869 20.9277 16.5992 20.836 16.5747 20.7994C16.4402 20.6159 15.9878 20.9216 15.8349 21.1601Z" fill="black"/>
<path d="M15.5843 20.2369C15.7493 20.1941 15.9266 20.1574 16.055 20.029C16.0795 20.0045 16.0734 19.9618 16.0795 19.9312C16 19.6744 15.6332 19.87 15.5292 20.1574C15.5231 20.1757 15.572 20.243 15.5843 20.2369Z" fill="black"/>
<path d="M21.1051 62.0619C20.0474 63.786 19.974 63.8777 19.8945 64.0489C19.8212 64.214 20.0535 64.3852 20.188 64.2323C20.7444 63.6087 22.1444 61.1387 22.4624 59.6897C22.1567 59.1945 22.2484 60.2033 21.1051 62.0619Z" fill="black"/>
<path d="M20.6893 60.9002C20.3164 61.3038 19.4543 62.8934 19.222 63.3152C19.1853 63.3825 19.1792 63.4742 19.1792 63.5475C19.1853 63.6026 19.2403 63.6454 19.2648 63.6882C19.3443 63.6821 19.4115 63.7371 19.546 63.4864C20.7871 61.2121 20.7627 61.2487 20.8666 60.992C20.9033 60.9002 20.7871 60.7902 20.6893 60.9002Z" fill="black"/>
<path d="M27.2373 49.8892C27.5491 49.4857 27.8181 49.0516 28.0321 48.5869C28.4417 47.7188 28.7352 47.7677 28.6129 47.4925C28.5273 47.2908 28.1421 47.7616 28.0199 47.9878C26.8949 50.0848 27.115 49.6691 26.9805 50.042C27.1578 50.0359 27.1884 49.9503 27.2373 49.8892Z" fill="black"/>
<path d="M19.7417 61.0287C19.7111 61.0225 19.6561 61.047 19.6377 61.0715C18.5678 62.4654 18.5984 62.4287 18.5923 62.496C18.5678 62.6855 18.7635 62.8323 18.8857 62.6733C19.7967 61.4689 19.5827 61.7134 19.8212 61.1448C19.7845 61.0837 19.7661 61.0348 19.7417 61.0287Z" fill="black"/>
<path d="M18.9897 60.2583C17.9748 61.1876 18.0176 61.1326 17.9626 61.2549C17.8953 61.4199 18.0482 61.6156 18.2194 61.4933C18.5923 61.2304 18.8185 60.8513 19.0142 60.4478C19.0386 60.3867 19.0508 60.3317 18.9897 60.2583Z" fill="black"/>
<path d="M18.2499 59.384C18.2132 59.3718 18.1643 59.3412 18.146 59.3535C17.8281 59.5736 17.5407 59.8303 17.2778 60.1055C17.076 60.3072 17.4368 60.8819 18.2744 59.4391C18.2621 59.4146 18.2621 59.3901 18.2499 59.384Z" fill="black"/>
<path d="M26.418 49.4551C26.4547 49.449 26.5036 49.4428 26.522 49.4123C26.7298 49.1433 27.3351 48.2996 27.3718 47.9572C27.3779 47.9388 27.3779 47.9327 27.3779 47.9266C27.3779 47.9327 27.3657 47.9511 27.329 47.9205C27.2801 47.8777 27.1761 47.9022 27.1334 47.9816C26.2652 49.5284 26.3691 49.3511 26.3752 49.4123C26.3875 49.4245 26.4058 49.4551 26.418 49.4551Z" fill="black"/>
<path d="M17.4429 58.3019C17.3328 58.2163 16.8498 58.522 16.6786 58.7115C16.3974 59.0233 16.697 59.2434 16.8192 59.1211C17.4551 58.4547 17.5468 58.3874 17.4429 58.3019Z" fill="black"/>
<path d="M25.8495 48.5136C25.5805 48.4402 25.397 48.9354 25.3726 49.2411C25.6416 49.0455 26.0573 48.5686 25.8495 48.5136Z" fill="black"/>
<path d="M29.3466 42.1796C29.3649 42.1735 29.4933 42.0695 29.4383 41.9839C29.3344 41.8311 28.9431 42.0267 28.8636 42.0573C27.7814 42.4975 26.8277 43.6102 24.1254 45.0103C23.7402 45.212 23.3733 45.4321 23.0065 45.6584C22.8231 45.7684 22.6213 45.8723 22.5663 46.1414C23.2816 45.744 23.9847 45.3221 24.7184 44.9614C26.3386 44.1666 28.2706 42.5892 29.3466 42.1796Z" fill="black"/>
<path d="M17.6874 48.2079C18.2743 48.0428 19.8945 48.2873 21.6859 47.7554C21.8693 47.7004 22.0955 47.7004 22.1933 47.4742C22.016 47.2724 21.8999 47.4558 21.5392 47.517C18.8674 47.9694 17.4612 47.7004 17.5101 48.0978C17.5223 48.2079 17.6202 48.2323 17.6874 48.2079Z" fill="black"/>
<path d="M19.3259 47.4681C19.6072 47.4681 19.8762 47.3886 20.1452 47.3091C20.1635 47.303 20.188 47.2419 20.1819 47.2052C20.1635 47.1196 20.0168 47.1318 19.8701 47.1257C19.6683 47.144 19.4543 47.1012 19.2831 47.2419C19.2342 47.2847 19.2098 47.462 19.3259 47.4681Z" fill="black"/>
<path d="M5.45358 18.1337C5.52694 17.9564 5.65533 17.7791 5.83875 17.6752C5.97937 17.5896 6.35231 17.663 6.50516 17.8097C6.7436 18.0359 6.54184 18.6962 5.98548 18.6901C5.80818 18.6901 5.77761 18.6228 5.71647 18.4944C5.64922 18.3538 5.38021 18.3294 5.45358 18.1337ZM5.76538 19.3748C5.94268 19.4299 6.46236 19.2037 6.57853 19.1425C7.17769 18.8246 6.95759 18.7084 7.27551 18.3294C7.48949 18.0726 7.38556 17.7852 7.34888 17.5101C7.33665 17.4612 7.28162 17.4001 7.23271 17.3756C6.5235 17.0577 7.10432 17.2778 6.1261 17.1005C5.6859 17.021 5.07451 17.0821 4.89721 17.5285C4.671 18.0726 4.59152 17.6507 4.51204 18.3966C4.51815 18.5311 4.53038 18.5556 4.60375 18.6779C4.86053 19.1242 5.31907 19.2465 5.76538 19.3748Z" fill="black"/>
<path d="M8.2048 21.3496C8.60832 21.1968 9.00572 21.0317 9.37867 20.8177C10.4303 20.2186 10.0634 20.5182 11.1761 19.8762C13.4688 18.5495 14.4348 18.4945 14.5693 17.9992C14.2759 17.8647 12.9064 18.5556 11.8059 19.0631C11.0844 19.3932 11.1945 19.5155 10.1674 20.0229C8.18035 21.0134 7.89911 21.1295 8.03973 21.3068C8.0703 21.3435 8.16201 21.368 8.2048 21.3496Z" fill="black"/>
<path d="M2.33551 23.1166C3.74781 23.1227 4.0046 22.7742 4.70158 22.6458C5.11121 22.5724 5.47804 22.3829 5.86321 22.2606C6.10777 22.1812 6.29118 21.9549 6.23616 21.8388C6.09554 21.527 4.0963 22.6397 2.35996 22.7253C1.85251 22.7497 1.61407 22.7497 1.62019 22.9698C1.63241 23.2389 1.99925 23.141 2.33551 23.1166Z" fill="black"/>
<path d="M4.48148 21.5575C4.68324 21.4658 4.84832 21.3068 5.03173 21.1723C5.09287 21.1234 5.16012 21.0562 5.11121 20.9767C4.97059 20.7505 3.30762 21.8387 1.68133 21.9182C1.29616 21.9427 1.00881 23.0615 4.48148 21.5575Z" fill="black"/>
<path d="M1.97476 19.277C3.14251 18.256 3.0936 18.2988 3.41152 17.9564C3.42375 17.9381 3.41152 17.8158 3.35038 17.828C2.69009 17.9381 1.66296 18.953 1.60793 19.2465C1.5957 19.3382 1.72409 19.4971 1.97476 19.277Z" fill="black"/>
<path d="M2.72068 20.9033C2.78793 20.8483 2.83073 20.7627 2.78182 20.6893C2.62897 20.457 1.60795 21.1173 1.38174 21.3068C1.19832 21.4658 1.36951 21.6064 1.38785 21.6247C1.72412 21.5269 1.93199 21.2885 2.47612 21.0806C2.56783 21.0439 2.6412 20.9644 2.72068 20.9033Z" fill="black"/>
<path d="M8.26597 16.214C8.48607 16.165 9.31144 16.0305 9.36647 15.8166C9.40927 15.5659 8.30877 15.7432 8.18038 16.0367C8.11924 16.1895 8.24763 16.2201 8.26597 16.214Z" fill="black"/>
<path d="M0.965993 20.8666C0.959879 20.9339 0.990448 20.9828 1.05159 21.0072C1.09438 21.0072 1.14329 21.0133 1.16775 20.995C2.48223 19.9312 1.09438 19.8395 0.965993 20.8666Z" fill="black"/>
<path d="M18.2438 54.5969C18.0054 54.7191 17.2595 55.5323 17.1005 55.7035C16.0917 56.8101 15.3764 56.6267 15.4375 57.0302C15.4437 57.0608 15.4987 57.0791 15.5292 57.0974C16.4096 57.0974 17.6141 55.6057 18.1949 54.9331C18.4395 54.658 18.2499 54.5908 18.2438 54.5969Z" fill="black"/>
<path d="M15.6332 56.2598C16.1406 55.8502 16.6053 55.4039 16.9354 54.8353C16.9416 54.8231 16.9293 54.7986 16.9171 54.6824C15.3886 56.0153 15.5048 55.893 15.4253 56.0703C15.3581 56.2231 15.5598 56.3149 15.6332 56.2598Z" fill="black"/>
<path d="M15.5476 54.7986C17.1127 53.5575 16.5625 53.637 16.5319 53.6614C15.6087 54.4685 15.2969 54.4685 15.2908 54.6091C15.2847 54.8414 15.462 54.8659 15.5476 54.7986Z" fill="black"/>
<path d="M16.1467 52.8116C16.1345 52.8055 16.1039 52.7933 16.0917 52.8055C15.3091 53.3863 14.9484 53.3252 15.0462 53.6064C15.1501 53.8938 16.3423 52.9278 16.1467 52.8116Z" fill="black"/>
<path d="M15.9572 52.0229C15.9267 51.9373 15.8716 51.9618 15.2297 52.3775C15.0524 52.4876 15.1563 52.6282 15.1747 52.6832C15.3886 52.6832 16.0428 52.2858 15.9572 52.0229Z" fill="black"/>
<path d="M21.3374 50.3049C21.3557 50.3294 21.4168 50.3477 21.4413 50.3355C22.2544 49.773 22.2911 49.7669 22.2361 49.614C22.1627 49.4001 21.4902 50.0665 21.3496 50.2071C21.3312 50.2254 21.3251 50.2866 21.3374 50.3049Z" fill="black"/>
<path d="M15.9694 51.2281C15.7126 51.1914 15.5353 51.3076 15.3886 51.4788C15.3702 51.4971 15.3702 51.5582 15.3825 51.5888C15.4681 51.7906 15.8899 51.4849 15.9694 51.2281Z" fill="black"/>
<path d="M21.3068 49.6507C21.4658 49.6202 21.6431 49.5346 21.6186 49.3756C21.4841 49.2533 21.2579 49.4123 21.2457 49.5835C21.2396 49.6079 21.2885 49.6568 21.3068 49.6507Z" fill="black"/>
<path d="M41.6171 29.0837C41.5743 29.0531 41.5071 29.0103 41.4582 29.0225C41.0363 29.1387 40.7551 29.4138 40.6083 29.8234C40.5839 29.8907 40.7 30.0007 40.7489 29.9579C41.5621 29.2549 41.7027 29.1448 41.6171 29.0837Z" fill="black"/>
<path d="M42.1429 29.4139C41.8128 29.475 41.5988 29.6706 41.4765 29.9702C41.4521 30.0314 41.4888 30.0864 41.5499 30.1292C41.7211 30.0986 41.5927 30.2209 42.2897 29.634C42.3997 29.5361 42.2652 29.3894 42.1429 29.4139Z" fill="black"/>
<path d="M43.2067 30.0069C42.8888 29.9396 42.522 30.2147 42.473 30.5632C42.4608 30.6488 42.5709 30.7161 42.6259 30.6733C43.3901 30.123 43.2556 30.2086 43.2862 30.0863C43.2617 30.0619 43.2373 30.013 43.2067 30.0069Z" fill="black"/>
<path d="M43.3412 30.8934C43.3657 31.0095 43.543 30.9423 43.6163 30.8139C43.7569 30.5999 43.2556 30.5082 43.3412 30.8934Z" fill="black"/>
<path d="M42.8 57C44.12 55.12 45.12 47.32 45.12 39.72C45.12 33.36 44.44 27.04 42.8 24.4C44.36 24.8 45.92 25 47.52 25C49.08 25 50.64 24.8 52.2 24.4C50.12 27.16 48.88 34.36 48.88 42.4C48.88 47.08 49.36 51.88 50.2 56C53.84 55.92 59.4 53.28 62 50.24V57C58.48 56.68 55.12 56.44 51.76 56.44C48.76 56.44 45.8 56.64 42.8 57ZM70.5813 57.68C66.9413 57.68 63.5813 55.48 63.5813 50.8C63.5813 43.28 73.7813 41.2 78.7013 41.2C78.6213 35.88 77.3013 33.64 75.5813 33.64C72.4213 33.64 72.0613 39.36 68.4213 39.36C66.5013 39.36 65.4613 37.72 65.4613 36.2C65.4613 35.28 65.8613 34.36 66.6613 33.88C67.0213 34.56 67.7413 34.76 68.5013 34.76C70.4613 34.76 72.9813 33.2 76.2213 33.2C80.8613 33.2 84.3013 34.88 84.3013 41.6C84.3013 51.8 84.7413 55.36 87.2613 57C80.8213 58.32 78.9813 53.88 78.8613 47.76H78.7413C77.9813 54.48 74.5813 57.68 70.5813 57.68ZM72.9013 56.08C75.5813 56.08 78.9413 51.4 78.7013 41.6C76.5813 42 69.7013 44.16 69.7013 50.68C69.7013 54.24 71.1813 56.08 72.9013 56.08ZM96.2306 57.6C92.1106 57.6 87.9506 53 87.9506 45C87.9506 37.92 92.5106 33.28 96.9906 33.28C100.271 33.28 102.671 35.76 103.431 40.4C104.231 30.56 102.471 25.92 101.111 24.4C103.991 24.96 106.791 24.96 110.031 24.4C108.711 30.4 107.791 37.88 107.791 44.24C107.791 50 108.511 54.88 110.391 57C105.791 57.84 103.271 55.16 103.111 49.88C102.031 54.52 99.5506 57.6 96.2306 57.6ZM98.0706 55.96C100.871 55.96 103.311 50.64 103.311 43.76C103.311 38.04 100.991 34.68 98.6306 34.68C96.2706 34.68 93.8306 37.96 93.8306 45C93.8306 52.4 95.8706 55.96 98.0706 55.96ZM114.151 66.52C112.391 66.28 111.511 64.76 111.511 63.12C111.511 61.16 112.831 59.04 115.391 59.04C119.311 59.04 120.391 65.16 123.871 65.16C127.751 65.16 127.591 57.4 127.391 49.68C126.271 54.76 123.151 57.32 119.671 57.32C114.591 57.32 113.231 52.48 112.871 46.8C112.391 42.2 112.991 37.12 111.591 33.76C114.351 34.36 117.071 34.48 119.911 33.76C118.551 36.92 117.791 41.28 117.791 45.2C117.791 50.76 119.471 55.44 122.671 55.44C125.111 55.44 127.231 51.52 127.231 46.64C127.231 42 126.431 37 125.151 33.88C127.711 34.4 130.231 34.4 132.911 33.88C131.271 37.96 132.191 43.84 132.191 52.16C132.191 63.08 127.551 65.56 123.791 65.56C120.751 65.56 118.671 64.12 116.391 64.4C115.191 64.52 114.151 65.28 114.151 66.52ZM134.363 57C137.243 52.4 139.403 40.76 139.403 32.52C139.403 28.8 138.963 25.8 137.963 24.4C139.563 24.68 141.163 24.8 142.763 24.8C144.323 24.8 145.923 24.68 147.523 24.4C147.323 25.32 147.243 26.4 147.243 27.56C147.243 35.2 151.323 47.24 153.762 52.52C154.603 47.4 158.562 35.88 158.562 28.32C158.562 26.72 158.323 25.36 157.803 24.4C159.323 24.68 160.803 24.8 162.283 24.8C163.763 24.8 165.243 24.68 166.723 24.4C165.843 27.44 165.443 30.76 165.443 34.08C165.443 44.32 169.123 53.68 170.923 57C169.283 56.72 167.603 56.56 165.963 56.56C164.283 56.56 162.643 56.72 160.963 57C161.643 55.64 162.043 52.88 162.043 49.2C162.043 43.52 161.203 35.64 159.483 28.48C158.683 37.84 155.243 46.8 155.243 52.76C155.243 54.4 155.523 55.84 156.162 57C154.403 56.72 152.923 56.56 151.443 56.56C149.963 56.56 148.483 56.72 146.723 57C146.923 55.72 147.003 54.32 147.003 52.8C147.003 45.88 144.523 35.76 140.003 28.36C140.243 30.88 139.523 39.72 139.523 41.48C139.643 47.64 140.163 52.68 142.923 57C141.483 56.72 140.043 56.56 138.643 56.56C137.243 56.56 135.843 56.72 134.363 57ZM179.527 57.68C175.887 57.68 172.527 55.48 172.527 50.8C172.527 43.28 182.727 41.2 187.647 41.2C187.567 35.88 186.247 33.64 184.527 33.64C181.367 33.64 181.007 39.36 177.367 39.36C175.447 39.36 174.407 37.72 174.407 36.2C174.407 35.28 174.807 34.36 175.607 33.88C175.967 34.56 176.687 34.76 177.447 34.76C179.407 34.76 181.927 33.2 185.167 33.2C189.807 33.2 193.247 34.88 193.247 41.6C193.247 51.8 193.687 55.36 196.207 57C189.767 58.32 187.927 53.88 187.807 47.76H187.687C186.927 54.48 183.527 57.68 179.527 57.68ZM181.847 56.08C184.527 56.08 187.887 51.4 187.647 41.6C185.527 42 178.647 44.16 178.647 50.68C178.647 54.24 180.127 56.08 181.847 56.08ZM205.176 57.6C201.056 57.6 196.896 53 196.896 45C196.896 37.92 201.456 33.28 205.936 33.28C209.216 33.28 211.616 35.76 212.376 40.4C213.176 30.56 211.416 25.92 210.056 24.4C212.936 24.96 215.736 24.96 218.976 24.4C217.656 30.4 216.736 37.88 216.736 44.24C216.736 50 217.456 54.88 219.336 57C214.736 57.84 212.216 55.16 212.056 49.88C210.976 54.52 208.496 57.6 205.176 57.6ZM207.016 55.96C209.816 55.96 212.256 50.64 212.256 43.76C212.256 38.04 209.936 34.68 207.576 34.68C205.216 34.68 202.776 37.96 202.776 45C202.776 52.4 204.816 55.96 207.016 55.96ZM231.82 57.64C226.18 57.64 220.14 53.2 220.06 45.12C220.02 37.72 224.78 33.24 232.14 33.24C236.58 33.24 240.9 35.24 240.9 39.56C240.94 43.76 236.62 46.04 232.14 46.04C230.06 46.04 227.94 45.52 226.26 44.36C226.42 49.88 229.54 54.92 234.5 54.92C236.86 54.92 239.14 53.76 240.74 51.36C239.5 54.84 236.9 57.64 231.82 57.64ZM229.98 45.2C233.46 45.2 235.5 42.2 235.5 39.08C235.5 36 234.34 34.04 232.02 34.04C228.26 34.04 226.3 39.64 226.26 43.92C227.62 44.84 228.86 45.2 229.98 45.2Z" fill="black"/>
</svg>
